<?xml version="1.0" encoding="utf-8"?>
<!-- Generator: Adobe Illustrator 27.5.0, SVG Export Plug-In . SVG Version: 6.00 Build 0)  -->
<svg version="1.1" xmlns="http://www.w3.org/2000/svg" xmlns:xlink="http://www.w3.org/1999/xlink" x="0px" y="0px"
	 viewBox="0 0 750 500" style="enable-background:new 0 0 750 500;" xml:space="preserve">
<g id="BACKGROUND">
	<rect style="fill:#D5D9F2;" width="750" height="500"/>
</g>
<g id="OBJECTS">
	<g>
		<g>
			<g>
				<g>
					<path style="fill:#E8EBFC;" d="M585.906,49.094h94.131c1.034-2.11,1.997-4.565,2.341-6.889c0.344-2.324-0.121-4.89-1.771-6.563
						c-2.747-2.785-7.532-2.028-10.847,0.048c-1.591,0.997-3.047,2.251-4.8,2.925c-1.753,0.674-3.979,0.612-5.24-0.779
						c-1.344-1.483-1.083-3.755-0.891-5.746c0.267-2.754,0.234-5.591-0.652-8.212c-0.885-2.621-2.72-5.017-5.27-6.091
						c-4.598-1.936-9.888,0.887-13.277,4.548c-3.389,3.661-5.807,8.236-9.705,11.349c-1.772,1.416-4.165,2.517-6.265,1.661
						c-2.018-0.823-2.983-3.15-3.255-5.312c-0.272-2.162-0.069-4.4-0.708-6.484c-0.859-2.802-3.31-5.055-6.174-5.676
						c-2.864-0.621-6.028,0.413-7.971,2.608c-3.603,4.068-2.471,10.455-4.678,15.422c-0.57,1.284-1.629,2.61-3.032,2.544
						c-1.827-0.086-2.631-2.302-3.998-3.517c-1.766-1.569-4.68-1.313-6.51,0.181c-1.83,1.494-2.681,3.931-2.774,6.292
						C584.467,43.762,585.339,46.8,585.906,49.094z"/>
				</g>
				<g>
					<path style="fill:#E8EBFC;" d="M647.952,108.922h76.619c0.841-1.717,1.625-3.716,1.905-5.607s-0.099-3.981-1.442-5.342
						c-2.236-2.267-6.131-1.651-8.829,0.039c-1.295,0.811-2.48,1.833-3.907,2.381c-1.427,0.548-3.238,0.498-4.265-0.634
						c-1.094-1.207-0.882-3.056-0.725-4.677c0.217-2.242,0.19-4.551-0.531-6.684c-0.721-2.134-2.214-4.084-4.289-4.958
						c-3.742-1.576-8.048,0.722-10.807,3.702c-2.759,2.98-4.726,6.704-7.899,9.238c-1.443,1.152-3.39,2.049-5.099,1.352
						c-1.642-0.67-2.428-2.564-2.65-4.324c-0.221-1.76-0.056-3.582-0.576-5.278c-0.699-2.281-2.694-4.115-5.025-4.62
						c-2.331-0.506-4.906,0.337-6.488,2.122c-2.933,3.311-2.012,8.51-3.808,12.553c-0.464,1.045-1.326,2.124-2.468,2.071
						c-1.487-0.07-2.141-1.874-3.255-2.863c-1.438-1.277-3.809-1.069-5.299,0.147c-1.49,1.216-2.182,3.2-2.258,5.121
						C646.781,104.582,647.49,107.056,647.952,108.922z"/>
				</g>
				<g>
					<path style="fill:#E8EBFC;" d="M98.047,47.923h87.232c0.958-1.955,1.85-4.23,2.169-6.384c0.319-2.154-0.112-4.532-1.641-6.082
						c-2.545-2.581-6.98-1.879-10.052,0.045c-1.475,0.924-2.824,2.087-4.448,2.711c-1.624,0.624-3.687,0.567-4.855-0.722
						c-1.245-1.374-1.004-3.48-0.826-5.325c0.247-2.552,0.217-5.181-0.604-7.61c-0.821-2.429-2.52-4.649-4.883-5.644
						c-4.261-1.794-9.163,0.822-12.304,4.214c-3.141,3.392-5.381,7.632-8.993,10.518c-1.642,1.312-3.859,2.332-5.806,1.539
						c-1.87-0.763-2.765-2.919-3.017-4.923c-0.252-2.004-0.064-4.078-0.656-6.008c-0.796-2.597-3.067-4.684-5.721-5.26
						c-2.654-0.576-5.586,0.383-7.387,2.416c-3.339,3.77-2.29,9.689-4.335,14.291c-0.529,1.19-1.51,2.419-2.81,2.358
						c-1.693-0.08-2.438-2.133-3.705-3.259c-1.637-1.454-4.337-1.217-6.033,0.167s-2.484,3.643-2.571,5.83
						C96.714,42.982,97.521,45.798,98.047,47.923z"/>
				</g>
				<g>
					<path style="fill:#E8EBFC;" d="M18.273,93.155h78.331c0.86-1.756,1.661-3.799,1.948-5.733c0.286-1.934-0.101-4.07-1.474-5.462
						c-2.286-2.317-6.268-1.688-9.026,0.04c-1.324,0.829-2.535,1.874-3.994,2.434c-1.459,0.56-3.311,0.509-4.36-0.649
						c-1.118-1.234-0.902-3.125-0.741-4.782c0.222-2.292,0.195-4.652-0.542-6.834c-0.737-2.181-2.263-4.175-4.385-5.068
						c-3.826-1.611-8.228,0.738-11.048,3.785c-2.82,3.046-4.832,6.854-8.076,9.445c-1.475,1.178-3.466,2.094-5.213,1.382
						c-1.679-0.685-2.483-2.621-2.709-4.42c-0.226-1.799-0.057-3.662-0.589-5.396c-0.715-2.332-2.754-4.207-5.137-4.724
						c-2.383-0.517-5.016,0.344-6.633,2.17c-2.998,3.385-2.057,8.701-3.893,12.833c-0.475,1.068-1.356,2.172-2.523,2.117
						c-1.521-0.072-2.189-1.916-3.327-2.927c-1.47-1.306-3.894-1.093-5.417,0.15c-1.523,1.243-2.231,3.271-2.309,5.235
						C17.076,88.718,17.801,91.247,18.273,93.155z"/>
				</g>
			</g>
			<g>
				<g>
					<path style="fill:#BFC5EB;" d="M516.855,100.642c-0.453-1.59-0.946-3.191-1.465-4.758l0.949-0.314
						c0.523,1.581,1.021,3.195,1.477,4.799L516.855,100.642z M236.681,98.137l-0.949-0.314c0.522-1.576,1.091-3.168,1.689-4.729
						l0.934,0.357C237.762,94.999,237.198,96.576,236.681,98.137z M513.725,91.192c-0.586-1.547-1.211-3.102-1.858-4.619l0.92-0.393
						c0.652,1.53,1.283,3.097,1.874,4.658L513.725,91.192z M240.242,88.845l-0.917-0.4c0.664-1.521,1.375-3.054,2.112-4.556
						l0.897,0.44C241.604,85.819,240.9,87.338,240.242,88.845z M509.814,82.037c-0.713-1.491-1.467-2.987-2.242-4.445l0.883-0.47
						c0.782,1.472,1.543,2.98,2.262,4.483L509.814,82.037z M244.627,79.912l-0.877-0.48c0.802-1.465,1.646-2.929,2.508-4.35
						l0.856,0.519C246.259,77.009,245.423,78.46,244.627,79.912z M505.143,73.247c-0.837-1.423-1.717-2.848-2.616-4.236l0.84-0.544
						c0.907,1.4,1.795,2.838,2.638,4.273L505.143,73.247z M249.786,71.401l-0.832-0.556c0.926-1.386,1.895-2.771,2.878-4.114
						l0.807,0.591C251.665,68.655,250.704,70.027,249.786,71.401z M499.729,64.895c-0.968-1.357-1.97-2.699-2.979-3.988l0.787-0.616
						c1.019,1.3,2.03,2.654,3.006,4.024L499.729,64.895z M255.669,63.371l-0.78-0.626c1.042-1.299,2.127-2.594,3.225-3.848
						l0.753,0.658C257.776,60.8,256.701,62.083,255.669,63.371z M393.057,60.142l-0.252-0.968c0.343-0.089,0.684-0.2,1.012-0.329
						c1.142-0.45,2.169-1.121,3.053-1.994l0.703,0.711c-0.981,0.969-2.121,1.713-3.39,2.214
						C393.817,59.92,393.438,60.043,393.057,60.142z M387.863,60.129c-1.624-0.401-3.235-1.169-4.66-2.223l0.594-0.804
						c1.32,0.976,2.81,1.687,4.307,2.056L387.863,60.129z M493.595,57.059c-1.083-1.26-2.204-2.504-3.33-3.698l0.727-0.687
						c1.138,1.206,2.269,2.462,3.361,3.733L493.595,57.059z M262.225,55.883l-0.723-0.69c1.153-1.208,2.346-2.403,3.546-3.555
						l0.692,0.722C264.551,53.5,263.368,54.686,262.225,55.883z M379.688,54.133c-0.636-1.008-1.118-2.076-1.434-3.173
						c-0.157-0.544-0.283-1.104-0.374-1.664l0.986-0.161c0.085,0.521,0.202,1.042,0.349,1.548c0.289,1.007,0.733,1.988,1.318,2.917
						L379.688,54.133z M400.339,53.19l-0.937-0.35c0.548-1.467,0.846-3.058,0.884-4.729l1,0.023
						C401.245,49.917,400.926,51.618,400.339,53.19z M486.766,49.824c-1.198-1.154-2.431-2.285-3.665-3.363l0.658-0.753
						c1.246,1.088,2.491,2.231,3.7,3.396L486.766,49.824z M269.406,48.991l-0.66-0.751c1.257-1.104,2.55-2.191,3.844-3.231
						l0.627,0.779C271.934,46.819,270.652,47.897,269.406,48.991z M378.896,44.319l-0.986-0.164c0.272-1.643,0.787-3.287,1.53-4.885
						l0.906,0.421C379.642,41.207,379.154,42.764,378.896,44.319z M399.649,43.33c-0.305-1.021-0.715-1.986-1.22-2.87
						c-0.278-0.487-0.587-0.974-0.918-1.448l0.818-0.573c0.35,0.499,0.675,1.012,0.969,1.525c0.542,0.95,0.982,1.985,1.31,3.078
						L399.649,43.33z M479.274,43.283c-1.297-1.024-2.636-2.028-3.98-2.983l0.58-0.815c1.357,0.965,2.71,1.979,4.02,3.013
						L479.274,43.283z M277.165,42.758l-0.591-0.807c1.348-0.988,2.733-1.956,4.116-2.876l0.555,0.832
						C279.874,40.82,278.501,41.779,277.165,42.758z M471.166,37.528c-1.388-0.879-2.824-1.737-4.27-2.549l0.49-0.872
						c1.46,0.821,2.912,1.688,4.314,2.577L471.166,37.528z M285.448,37.243l-0.516-0.856c1.427-0.859,2.894-1.697,4.361-2.491
						l0.476,0.88C288.316,35.562,286.862,36.392,285.448,37.243z M382.916,35.553l-0.783-0.623c0.635-0.796,1.328-1.552,2.063-2.245
						c0.497-0.468,1.02-0.923,1.553-1.351l0.627,0.779c-0.514,0.413-1.017,0.85-1.494,1.3
						C384.181,34.073,383.52,34.793,382.916,35.553z M394.255,35.389c-1.151-1.025-2.479-2.005-3.948-2.913l0.525-0.851
						c1.518,0.939,2.893,1.954,4.087,3.017L394.255,35.389z M462.498,32.657c-1.478-0.733-2.997-1.435-4.514-2.089l0.396-0.918
						c1.532,0.661,3.066,1.371,4.561,2.111L462.498,32.657z M294.201,32.512l-0.434-0.901c1.501-0.724,3.04-1.421,4.574-2.075
						l0.392,0.92C297.214,31.103,295.689,31.795,294.201,32.512z M385.95,30.155c-1.396-0.646-2.896-1.264-4.588-1.89l0.348-0.938
						c1.716,0.635,3.24,1.263,4.66,1.92L385.95,30.155z M390.462,29.398l-0.482-0.876c1.403-0.772,2.949-1.487,4.596-2.127
						l0.361,0.933C393.331,27.951,391.826,28.648,390.462,29.398z M453.369,28.716c-1.548-0.574-3.131-1.115-4.707-1.608
						l0.299-0.954c1.592,0.498,3.192,1.044,4.756,1.625L453.369,28.716z M303.355,28.61l-0.35-0.937
						c1.555-0.58,3.151-1.135,4.744-1.649l0.307,0.952C306.478,27.486,304.896,28.035,303.355,28.61z M376.656,26.655
						c-1.579-0.499-3.186-0.966-4.778-1.39l0.257-0.967c1.607,0.427,3.229,0.899,4.822,1.403L376.656,26.655z M399.636,25.777
						l-0.27-0.963c0.858-0.24,1.719-0.461,2.579-0.667c0.768-0.184,1.539-0.356,2.313-0.517l0.203,0.979
						c-0.764,0.158-1.525,0.328-2.282,0.51C401.33,25.322,400.482,25.54,399.636,25.777z M443.877,25.749
						c-1.603-0.41-3.234-0.781-4.85-1.104l0.195-0.98c1.633,0.326,3.282,0.701,4.902,1.115L443.877,25.749z M312.827,25.556
						l-0.265-0.965c1.605-0.439,3.244-0.85,4.872-1.22l0.222,0.976C316.042,24.713,314.417,25.12,312.827,25.556z M367.04,24.093
						c-1.608-0.351-3.252-0.671-4.885-0.951l0.169-0.985c1.648,0.283,3.307,0.605,4.929,0.96L367.04,24.093z M434.128,23.803
						c-1.642-0.237-3.303-0.43-4.94-0.574l0.088-0.996c1.654,0.146,3.335,0.341,4.994,0.58L434.128,23.803z M409.355,23.746
						l-0.143-0.989c1.651-0.239,3.332-0.431,4.996-0.57l0.084,0.996C412.648,23.322,410.987,23.511,409.355,23.746z M322.532,23.352
						l-0.179-0.984c1.642-0.297,3.31-0.563,4.959-0.788l0.136,0.991C325.814,22.794,324.16,23.057,322.532,23.352z M424.225,22.931
						c-1.659-0.054-3.317-0.06-4.971-0.018l-0.025-1c1.677-0.042,3.351-0.036,5.029,0.019L424.225,22.931z M357.232,22.409
						c-1.637-0.207-3.303-0.38-4.951-0.515l0.081-0.997c1.663,0.136,3.343,0.31,4.995,0.519L357.232,22.409z M332.394,22.005
						l-0.092-0.996c1.658-0.153,3.343-0.273,5.009-0.354l0.049,0.999C335.709,21.734,334.038,21.852,332.394,22.005z
						 M347.312,21.597c-1.433-0.054-2.892-0.082-4.335-0.082l-0.641,0.002l-0.007-1l0.648-0.002c1.456,0,2.927,0.028,4.373,0.083
						L347.312,21.597z"/>
				</g>
				<g>
					<path style="fill:#BFC5EB;" d="M113.433,361.85c-0.765,0-1.531-0.01-2.296-0.028l0.024-1c0.793,0.019,1.584,0.026,2.379,0.028
						c0.865,0,1.73-0.012,2.595-0.034l0.025,1C115.253,361.839,114.343,361.855,113.433,361.85z M106.118,361.573
						c-1.667-0.126-3.349-0.297-5-0.51l0.128-0.992c1.633,0.211,3.298,0.381,4.947,0.504L106.118,361.573z M121.179,361.563
						l-0.074-0.998c1.628-0.121,3.293-0.286,4.951-0.489l0.122,0.992C124.505,361.274,122.823,361.44,121.179,361.563z
						 M131.148,360.335l-0.169-0.986c1.631-0.279,3.274-0.602,4.884-0.956l0.215,0.977
						C134.453,359.728,132.795,360.052,131.148,360.335z M96.153,360.286c-1.656-0.306-3.31-0.659-4.916-1.051l0.236-0.972
						c1.589,0.387,3.225,0.736,4.862,1.04L96.153,360.286z M140.957,358.174l-0.261-0.965c1.576-0.426,3.183-0.896,4.777-1.4
						l0.302,0.953C144.167,357.271,142.546,357.745,140.957,358.174z M86.387,357.908c-1.61-0.494-3.212-1.037-4.763-1.614
						l0.35-0.938c1.532,0.571,3.115,1.107,4.707,1.595L86.387,357.908z M150.529,355.145l-0.342-0.939
						c1.538-0.559,3.1-1.163,4.645-1.796l0.379,0.926C153.654,353.973,152.078,354.581,150.529,355.145z M76.966,354.393
						c-1.348-0.601-2.686-1.241-3.977-1.903l-0.552-0.288l0.464-0.885l0.547,0.283c1.272,0.653,2.594,1.286,3.926,1.879
						L76.966,354.393z M159.816,351.339l-0.415-0.91c1.504-0.686,3.016-1.411,4.491-2.153l0.449,0.893
						C162.854,349.917,161.332,350.648,159.816,351.339z M68.061,349.714c-1.415-0.868-2.827-1.802-4.197-2.776l0.579-0.814
						c1.353,0.961,2.746,1.882,4.142,2.739L68.061,349.714z M168.782,346.838l-0.48-0.877c1.437-0.788,2.892-1.619,4.326-2.471
						l0.511,0.859C171.695,345.208,170.229,346.045,168.782,346.838z M59.861,343.888c-1.296-1.058-2.571-2.171-3.792-3.31
						l0.682-0.73c1.205,1.123,2.463,2.222,3.742,3.265L59.861,343.888z M177.408,341.717l-0.539-0.842
						c1.39-0.89,2.788-1.815,4.155-2.753l0.565,0.824C180.214,339.891,178.807,340.823,177.408,341.717z M52.505,337.025
						c-1.145-1.221-2.261-2.493-3.318-3.784l0.774-0.633c1.043,1.272,2.144,2.528,3.274,3.733L52.505,337.025z M185.682,336.048
						l-0.59-0.807c1.333-0.975,2.672-1.985,3.98-3.002l0.614,0.789C188.37,334.052,187.023,335.068,185.682,336.048z
						 M193.602,329.898l-0.636-0.771c1.274-1.049,2.555-2.133,3.807-3.222l0.656,0.754
						C196.171,327.754,194.883,328.844,193.602,329.898z M46.132,329.24c-0.972-1.369-1.904-2.783-2.769-4.203l0.854-0.52
						c0.853,1.399,1.771,2.794,2.73,4.145L46.132,329.24z M40.901,320.646c-0.769-1.497-1.487-3.031-2.133-4.562l0.921-0.389
						c0.637,1.507,1.344,3.019,2.102,4.493L40.901,320.646z M36.986,311.373c-0.533-1.595-1.005-3.223-1.404-4.838l0.971-0.24
						c0.393,1.59,0.858,3.192,1.382,4.762L36.986,311.373z M34.576,301.597c-0.168-1.042-0.309-2.099-0.42-3.141
						c-0.066-0.62-0.122-1.243-0.167-1.867l0.997-0.072c0.044,0.612,0.099,1.224,0.164,1.833c0.109,1.025,0.249,2.063,0.413,3.089
						L34.576,301.597z M34.856,291.565l-1-0.018c0.031-1.666,0.137-3.359,0.315-5.033l0.994,0.105
						C34.99,288.264,34.886,289.928,34.856,291.565z M35.902,281.719l-0.981-0.189c0.317-1.639,0.709-3.288,1.167-4.904l0.962,0.271
						C36.6,278.487,36.214,280.109,35.902,281.719z M68.077,274.122c-0.363,0-0.727-0.007-1.089-0.021l0.038-1
						c1.631,0.064,3.281-0.021,4.9-0.246l0.138,0.99C70.746,274.03,69.405,274.122,68.077,274.122z M61.945,273.449
						c-1.56-0.35-3.085-0.839-4.532-1.454l-0.305-0.132l0.405-0.914l0.29,0.125c1.393,0.593,2.859,1.063,4.36,1.398L61.945,273.449z
						 M77.016,272.708l-0.31-0.951c1.567-0.509,3.083-1.158,4.506-1.929l0.477,0.879C80.213,271.507,78.64,272.18,77.016,272.708z
						 M38.596,272.187l-0.936-0.352c0.587-1.566,1.249-3.128,1.966-4.641l0.903,0.428C39.824,269.111,39.174,270.646,38.596,272.187
						z M52.662,269.406c-1.375-0.926-2.708-1.993-3.961-3.172l0.686-0.729c1.214,1.142,2.504,2.175,3.834,3.07L52.662,269.406z
						 M85.911,267.866l-0.638-0.77c1.229-1.018,2.356-2.207,3.352-3.535l0.8,0.6C88.383,265.552,87.201,266.798,85.911,267.866z
						 M42.84,263.24l-0.864-0.504c0.507-0.87,1.04-1.731,1.592-2.575c-0.403-0.6-0.791-1.212-1.162-1.835l0.859-0.512
						c0.291,0.489,0.593,0.972,0.904,1.445c0.175-0.257,0.352-0.512,0.531-0.765l0.816,0.576c-0.251,0.357-0.499,0.716-0.743,1.08
						c0.414,0.592,0.843,1.168,1.285,1.726l-0.783,0.621c-0.374-0.471-0.738-0.955-1.092-1.45
						C43.719,261.768,43.27,262.5,42.84,263.24z M92.007,259.756l-0.915-0.402c0.678-1.541,1.143-3.107,1.381-4.656l0.988,0.152
						C93.209,256.486,92.72,258.136,92.007,259.756z M48.553,255.158l-0.762-0.648c1.091-1.282,2.25-2.521,3.444-3.685l0.697,0.717
						C50.761,252.683,49.624,253.9,48.553,255.158z M40.105,253.819c-0.655-1.508-1.244-3.102-1.75-4.739l0.955-0.296
						c0.496,1.602,1.072,3.162,1.712,4.636L40.105,253.819z M92.443,249.887c-0.293-1.609-0.884-3.1-1.756-4.432l0.837-0.548
						c0.946,1.444,1.586,3.059,1.903,4.801L92.443,249.887z M55.641,248.266l-0.624-0.781c1.318-1.054,2.696-2.045,4.097-2.948
						l0.542,0.841C58.284,246.262,56.933,247.234,55.641,248.266z M37.102,244.193c-0.33-1.594-0.604-3.267-0.813-4.974l0.992-0.122
						c0.207,1.68,0.476,3.326,0.8,4.893L37.102,244.193z M63.947,242.921l-0.45-0.893c0.534-0.269,1.072-0.528,1.616-0.776
						c0.983-0.449,2.009-0.855,3.05-1.205l0.319,0.947c-1.008,0.34-2.002,0.732-2.954,1.167
						C64.996,242.405,64.469,242.658,63.947,242.921z M87.343,242.053c-1.272-0.868-2.748-1.532-4.385-1.974l0.261-0.966
						c1.745,0.471,3.323,1.182,4.688,2.113L87.343,242.053z M73.251,239.797l-0.164-0.986c1.559-0.26,3.101-0.392,4.582-0.392
						l0.488,0.004l-0.019,1l-0.469-0.004C76.242,239.419,74.756,239.546,73.251,239.797z M35.852,234.204
						c-0.068-1.28-0.108-2.616-0.119-3.973l-0.003-0.693l0-0.361l1,0.004l0,0.357l0.003,0.685c0.01,1.342,0.049,2.663,0.118,3.927
						L35.852,234.204z M36.882,224.211l-0.998-0.057c0.095-1.661,0.235-3.346,0.417-5.008l0.994,0.108
						C37.115,220.901,36.977,222.568,36.882,224.211z M37.963,214.327l-0.987-0.159c0.265-1.641,0.576-3.302,0.925-4.939
						l0.978,0.209C38.533,211.058,38.225,212.703,37.963,214.327z M40.035,204.599l-0.967-0.256
						c0.425-1.604,0.897-3.227,1.403-4.824l0.953,0.302C40.924,201.403,40.456,203.011,40.035,204.599z M43.039,195.114
						l-0.938-0.347c0.574-1.555,1.196-3.126,1.848-4.67l0.921,0.389C44.223,192.016,43.607,193.573,43.039,195.114z M46.91,185.948
						l-0.902-0.431c0.714-1.498,1.476-3.006,2.263-4.484l0.883,0.471C48.373,182.968,47.618,184.463,46.91,185.948z M51.591,177.163
						l-0.86-0.509c0.845-1.43,1.736-2.865,2.649-4.266l0.838,0.546C53.313,174.324,52.429,175.746,51.591,177.163z M57.027,168.826
						l-0.813-0.582c0.974-1.36,1.987-2.712,3.011-4.019l0.787,0.617C58.996,166.137,57.992,167.477,57.027,168.826z M63.166,160.99
						l-0.76-0.65c1.084-1.266,2.211-2.525,3.349-3.742l0.73,0.683C65.358,158.488,64.241,159.736,63.166,160.99z M69.964,153.721
						l-0.7-0.714c1.183-1.159,2.414-2.316,3.658-3.438l0.67,0.743C72.358,151.425,71.137,152.572,69.964,153.721z M77.357,147.055
						l-0.639-0.77c1.281-1.063,2.602-2.115,3.926-3.128l0.607,0.794C79.937,144.956,78.627,146,77.357,147.055z M85.266,141.005
						l-0.576-0.817c1.362-0.959,2.761-1.905,4.158-2.811l0.544,0.839C88.006,139.114,86.618,140.053,85.266,141.005z M93.62,135.583
						l-0.512-0.858c1.426-0.851,2.892-1.688,4.357-2.491l0.48,0.877C96.491,133.908,95.036,134.739,93.62,135.583z M102.357,130.797
						l-0.448-0.894c1.49-0.747,3.012-1.477,4.524-2.171l0.417,0.909C105.348,129.33,103.836,130.055,102.357,130.797z
						 M111.414,126.644l-0.385-0.923c1.533-0.64,3.102-1.263,4.663-1.852l0.354,0.936
						C114.495,125.39,112.936,126.009,111.414,126.644z M120.735,123.123l-0.321-0.947c1.579-0.536,3.186-1.053,4.776-1.535
						l0.29,0.957C123.9,122.077,122.304,122.59,120.735,123.123z M130.271,120.229l-0.259-0.966c1.605-0.43,3.242-0.84,4.866-1.22
						l0.228,0.974C133.492,119.394,131.865,119.802,130.271,120.229z M139.977,117.962l-0.196-0.98
						c1.636-0.327,3.296-0.631,4.934-0.905l0.165,0.986C143.252,117.335,141.602,117.637,139.977,117.962z"/>
				</g>
				<g>
					<path style="fill:#BFC5EB;" d="M611.474,347.065l-0.016-1c1.651-0.025,3.325-0.085,4.976-0.178l0.057,0.998
						C614.827,346.979,613.139,347.039,611.474,347.065z M606.455,347.042c-1.673-0.04-3.36-0.114-5.015-0.219l0.063-0.998
						c1.642,0.104,3.316,0.177,4.976,0.217L606.455,347.042z M621.497,346.499l-0.099-0.996c1.651-0.163,3.314-0.363,4.942-0.596
						l0.141,0.99C624.839,346.131,623.163,346.333,621.497,346.499z M596.439,346.418c-1.638-0.163-3.315-0.36-4.982-0.586
						l0.135-0.99c1.655,0.224,3.32,0.42,4.947,0.582L596.439,346.418z M631.437,345.078l-0.185-0.982
						c1.619-0.305,3.257-0.651,4.868-1.031l0.23,0.973C634.723,344.421,633.071,344.772,631.437,345.078z M586.5,345.074
						c-1.638-0.279-3.296-0.589-4.93-0.923l0.199-0.98c1.624,0.332,3.272,0.641,4.898,0.917L586.5,345.074z M576.67,343.072
						c-1.602-0.38-3.238-0.793-4.861-1.229l0.26-0.965c1.613,0.433,3.239,0.844,4.832,1.222L576.67,343.072z M641.209,342.775
						l-0.273-0.963c1.584-0.448,3.184-0.941,4.757-1.466l0.316,0.949C644.42,341.824,642.806,342.322,641.209,342.775z
						 M566.988,340.472c-1.584-0.475-3.193-0.981-4.781-1.506l0.313-0.949c1.58,0.521,3.181,1.024,4.756,1.498L566.988,340.472z
						 M650.738,339.601l-0.357-0.934c1.536-0.588,3.087-1.221,4.608-1.881l0.398,0.918
						C653.852,338.37,652.288,339.008,650.738,339.601z M557.467,337.331c-1.571-0.565-3.137-1.151-4.694-1.757l0.361-0.932
						c1.55,0.602,3.107,1.185,4.671,1.747L557.467,337.331z M659.946,335.607l-0.438-0.898c1.483-0.722,2.974-1.487,4.429-2.275
						l0.477,0.879C662.945,334.108,661.442,334.879,659.946,335.607z M548.123,333.701c-1.542-0.643-3.077-1.306-4.602-1.984
						l0.406-0.914c1.518,0.677,3.046,1.335,4.58,1.975L548.123,333.701z M668.777,330.827l-0.514-0.857
						c1.418-0.849,2.836-1.74,4.215-2.649l0.551,0.836C671.637,329.072,670.207,329.971,668.777,330.827z M538.964,329.626
						c-1.511-0.715-3.013-1.445-4.507-2.191l0.447-0.895c1.486,0.742,2.982,1.471,4.487,2.182L538.964,329.626z M677.161,325.303
						l-0.586-0.811c1.337-0.966,2.673-1.976,3.971-3.003l0.621,0.785C679.856,323.31,678.508,324.329,677.161,325.303z
						 M529.999,325.147c-1.352-0.712-2.695-1.436-4.03-2.171l0.482-0.877c1.329,0.732,2.667,1.453,4.015,2.163L529.999,325.147z
						 M685.036,319.074l-0.654-0.756c1.257-1.087,2.5-2.21,3.693-3.337l0.688,0.727
						C687.557,316.845,686.303,317.978,685.036,319.074z M692.337,312.18l-0.719-0.695c1.15-1.187,2.288-2.414,3.383-3.65
						l0.748,0.662C694.645,309.745,693.497,310.984,692.337,312.18z M698.992,304.662l-0.777-0.629
						c0.717-0.888,1.42-1.787,2.108-2.697c0.312-0.412,0.621-0.827,0.927-1.245l0.807,0.592c-0.31,0.422-0.621,0.841-0.936,1.257
						C700.425,302.858,699.716,303.765,698.992,304.662z M704.926,296.555l-0.836-0.551c0.916-1.39,1.8-2.811,2.628-4.224
						l0.863,0.506C706.744,293.714,705.851,295.151,704.926,296.555z M710.004,287.883l-0.889-0.459
						c0.762-1.477,1.484-2.984,2.148-4.481l0.914,0.406C711.506,284.864,710.775,286.389,710.004,287.883z M714.077,278.691
						l-0.938-0.35c0.58-1.559,1.11-3.142,1.576-4.707l0.959,0.285C715.202,275.505,714.665,277.111,714.077,278.691z
						 M716.939,269.047l-0.977-0.217c0.361-1.623,0.661-3.265,0.892-4.878l0.99,0.141
						C717.61,265.733,717.305,267.399,716.939,269.047z M718.356,259.081l-0.998-0.061c0.071-1.182,0.107-2.366,0.107-3.521
						c0.001-0.477-0.005-0.954-0.018-1.433l1-0.025c0.013,0.486,0.018,0.974,0.018,1.459
						C718.465,256.674,718.428,257.879,718.356,259.081z M717.1,249.126c-0.186-1.618-0.45-3.264-0.784-4.891l0.98-0.201
						c0.339,1.656,0.607,3.331,0.798,4.978L717.1,249.126z M715.117,239.426c-0.456-1.557-0.986-3.14-1.576-4.704l0.935-0.353
						c0.599,1.587,1.137,3.194,1.6,4.775L715.117,239.426z M711.624,230.143c-0.68-1.479-1.426-2.974-2.22-4.445l0.881-0.475
						c0.803,1.489,1.559,3.004,2.247,4.501L711.624,230.143z M667.369,223.032c-1.743-0.095-3.436-0.378-5.033-0.842l0.279-0.96
						c1.523,0.442,3.142,0.712,4.809,0.804L667.369,223.032z M672.454,222.797l-0.143-0.99c1.424-0.205,2.852-0.53,4.244-0.969
						c0.176-0.055,0.351-0.112,0.523-0.17l0.32,0.947c-0.181,0.061-0.361,0.12-0.544,0.177
						C675.412,222.246,673.93,222.585,672.454,222.797z M706.919,221.393c-0.854-1.385-1.769-2.786-2.723-4.164l0.822-0.568
						c0.963,1.392,1.889,2.808,2.752,4.208L706.919,221.393z M657.645,220.141c-1.457-0.894-2.784-1.995-3.943-3.273l0.74-0.672
						c1.096,1.208,2.35,2.248,3.727,3.093L657.645,220.141z M682.048,219.578l-0.478-0.878c1.419-0.774,2.799-1.684,4.102-2.703
						l0.615,0.788C684.942,217.838,683.516,218.777,682.048,219.578z M690.028,213.362l-0.729-0.685
						c1.111-1.183,2.156-2.469,3.105-3.823l0.818,0.574C692.247,210.821,691.172,212.144,690.028,213.362z M701.267,213.207
						c-0.992-1.297-2.039-2.605-3.111-3.886l0.768-0.642c1.081,1.292,2.137,2.611,3.139,3.92L701.267,213.207z M650.839,212.612
						c-0.76-1.605-1.232-3.27-1.405-4.948l0.994-0.103c0.161,1.564,0.604,3.12,1.315,4.623L650.839,212.612z M694.883,205.57
						c-1.168-1.28-2.332-2.481-3.457-3.571l0.695-0.719c0.975,0.943,1.976,1.969,2.983,3.055c0.688-1.366,1.298-2.785,1.811-4.224
						l0.941,0.337c-0.566,1.585-1.245,3.148-2.017,4.645l-0.278-0.143L694.883,205.57z M650.836,202.8l-0.963-0.271
						c0.459-1.625,1.223-3.18,2.269-4.62l0.808,0.588C651.973,199.84,651.262,201.288,650.836,202.8z M687.729,198.692
						c-1.324-1.087-2.663-2.074-3.977-2.933l0.547-0.837c1.345,0.878,2.713,1.887,4.065,2.997L687.729,198.692z M699.242,195.577
						l-0.978-0.208c0.345-1.616,0.578-3.257,0.695-4.879l0.998,0.072C699.836,192.23,699.595,193.917,699.242,195.577z
						 M656.341,195.044l-0.609-0.793c1.325-1.019,2.806-1.891,4.401-2.593l0.402,0.915
						C659.014,193.243,657.603,194.074,656.341,195.044z M679.459,193.345c-1.521-0.716-3.067-1.294-4.598-1.717l0.268-0.964
						c1.584,0.439,3.183,1.036,4.756,1.777L679.459,193.345z M665.195,191.128l-0.186-0.982c1.706-0.324,3.424-0.442,5.096-0.35
						l-0.055,0.998C668.458,190.708,666.823,190.82,665.195,191.128z M698.959,185.567c-0.115-1.621-0.341-3.264-0.671-4.884
						l0.981-0.199c0.338,1.662,0.569,3.348,0.688,5.012L698.959,185.567z M697.008,175.917c-0.516-1.541-1.134-3.084-1.837-4.585
						l0.906-0.424c0.719,1.536,1.352,3.115,1.88,4.692L697.008,175.917z M692.831,166.976c-0.844-1.389-1.78-2.764-2.785-4.088
						l0.797-0.605c1.025,1.351,1.982,2.755,2.844,4.173L692.831,166.976z M686.863,159.099c-1.115-1.202-2.306-2.367-3.538-3.463
						l0.664-0.747c1.257,1.117,2.471,2.305,3.607,3.53L686.863,159.099z M679.471,152.53c-1.227-0.896-2.505-1.744-3.801-2.523
						l-0.335-0.2l0.51-0.86l0.34,0.203c1.322,0.794,2.626,1.66,3.876,2.573L679.471,152.53z M588.782,151.971l-0.34-0.94
						c1.567-0.568,3.14-1.128,4.717-1.678l0.328,0.944C591.914,150.845,590.345,151.404,588.782,151.971z M598.214,148.694
						l-0.313-0.95c1.586-0.523,3.178-1.03,4.774-1.52l0.293,0.956C601.379,147.667,599.795,148.173,598.214,148.694z
						 M670.966,147.472c-1.467-0.705-2.999-1.363-4.554-1.958l0.358-0.934c1.58,0.605,3.138,1.274,4.63,1.991L670.966,147.472z
						 M607.755,145.778l-0.269-0.963c1.643-0.459,3.274-0.889,4.85-1.279l0.24,0.971
						C611.01,144.894,609.388,145.322,607.755,145.778z M661.714,143.922c-1.56-0.463-3.176-0.88-4.805-1.239l0.215-0.977
						c1.652,0.364,3.292,0.787,4.875,1.256L661.714,143.922z M617.431,143.389l-0.207-0.979c1.654-0.351,3.313-0.67,4.929-0.948
						l0.17,0.985C620.718,142.724,619.073,143.04,617.431,143.389z M652.026,141.781c-1.615-0.244-3.275-0.44-4.933-0.584
						l0.086-0.996c1.679,0.146,3.359,0.345,4.995,0.591L652.026,141.781z M627.245,141.706l-0.127-0.992
						c1.672-0.215,3.353-0.392,4.994-0.525l0.081,0.997C630.566,141.318,628.902,141.492,627.245,141.706z M637.159,140.914
						l-0.027-1c1.673-0.046,3.353-0.048,5.027,0l-0.029,1C640.474,140.865,638.814,140.868,637.159,140.914z"/>
				</g>
			</g>
			<g>
				<g>
					<path style="fill:#BFC5EB;" d="M664.639,470h27.108c32.891-38.389,22.951-68.75-4.518-8.932
						c6.325-48.794-11.205-55.32-11.205,0.894C670.428,434.322,653.615,431.402,664.639,470z"/>
				</g>
				<g>
					<path style="fill:#BFC5EB;" d="M226.336,470h13.57c6.125-17.754-2.042-26.28-7.326-4.544
						C224.174,435.073,212.526,440.558,226.336,470z"/>
				</g>
				<g>
					<path style="fill:#BFC5EB;" d="M41.54,470h34.565c8.098-29.547-1.185-49.931-11.061-7.643
						c-2.568-48.174-29.035-59.037-13.628,3.773C37.195,441.835,21.196,443.651,41.54,470z"/>
				</g>
			</g>
			<g>
				<g>
					<path style="fill:#BFC5EB;" d="M534.058,48.626c-0.494,0-0.99-0.023-1.475-0.069l0.094-0.995
						c1.588,0.148,3.241,0.035,4.799-0.341l0.234,0.972C536.522,48.479,535.294,48.625,534.058,48.626z M527.615,47.227
						c-1.571-0.719-3.003-1.69-4.256-2.886l0.69-0.724c1.172,1.119,2.512,2.028,3.981,2.7L527.615,47.227z M542.438,46.168
						l-0.541-0.841c1.359-0.875,2.557-1.964,3.559-3.237l0.785,0.619C545.17,44.068,543.891,45.232,542.438,46.168z M520.278,40.228
						c-0.793-1.538-1.319-3.186-1.564-4.899l0.99-0.141c0.228,1.602,0.72,3.143,1.462,4.581L520.278,40.228z M548.71,38.198
						l-0.945-0.327c0.527-1.522,0.794-3.119,0.794-4.745c0-1.389-0.196-2.763-0.583-4.085l0.959-0.281
						c0.414,1.413,0.624,2.882,0.624,4.366C549.558,34.864,549.273,36.57,548.71,38.198z M519.819,30.379l-0.982-0.188
						c0.326-1.698,0.931-3.319,1.799-4.818l0.865,0.501C520.689,27.275,520.124,28.791,519.819,30.379z M545.871,24.716
						c-0.938-1.317-2.083-2.462-3.4-3.402l0.58-0.815c1.409,1.005,2.632,2.229,3.635,3.636L545.871,24.716z M524.564,22.165
						l-0.654-0.756c1.309-1.135,2.785-2.036,4.388-2.678l0.371,0.929C527.17,20.261,525.789,21.103,524.564,22.165z M538.146,19.21
						c-1.543-0.453-3.177-0.643-4.777-0.568l-0.047-0.999c1.712-0.082,3.456,0.124,5.105,0.607L538.146,19.21z"/>
				</g>
				<g>
					<path style="fill:#BFC5EB;" d="M701.719,388.258c-0.484,0.047-1-0.023-1.487-0.069l0.096-0.996
						c0.455,0.045,0.902,0.103,1.392,0.065c1.15,0,2.296-0.136,3.406-0.405l0.234,0.973
						C704.173,388.113,702.949,388.258,701.719,388.258z M695.264,386.86c-1.571-0.719-3.003-1.69-4.257-2.887l0.69-0.723
						c1.173,1.119,2.513,2.027,3.982,2.699L695.264,386.86z M710.087,385.8l-0.541-0.84c1.359-0.877,2.557-1.966,3.559-3.237
						l0.785,0.619C712.821,383.701,711.541,384.865,710.087,385.8z M687.927,379.861c-0.793-1.537-1.319-3.186-1.563-4.898
						l0.99-0.141c0.229,1.602,0.72,3.143,1.462,4.58L687.927,379.861z M716.359,377.83l-0.945-0.326
						c0.527-1.523,0.794-3.12,0.794-4.746c0-1.39-0.196-2.764-0.583-4.085l0.959-0.281c0.414,1.412,0.624,2.882,0.624,4.366
						C717.208,374.495,716.922,376.203,716.359,377.83z M687.468,370.011l-0.982-0.19c0.326-1.697,0.931-3.318,1.799-4.817
						l0.865,0.5C688.339,366.907,687.773,368.423,687.468,370.011z M713.52,364.348c-0.939-1.316-2.083-2.461-3.4-3.401l0.58-0.814
						c1.408,1.006,2.631,2.229,3.635,3.636L713.52,364.348z M692.214,361.798l-0.654-0.756c1.309-1.136,2.785-2.036,4.388-2.677
						l0.371,0.928C694.82,359.893,693.439,360.736,692.214,361.798z M705.795,358.842c-1.542-0.452-3.17-0.638-4.778-0.568
						l-0.045-0.998c1.705-0.083,3.457,0.124,5.104,0.607L705.795,358.842z"/>
				</g>
				<g>
					<path style="fill:#BFC5EB;" d="M52.729,48.624l-0.017-1c1.589-0.028,3.148-0.47,4.508-1.278l0.511,0.859
						C56.221,48.103,54.492,48.594,52.729,48.624z M47.68,47.385c-1.542-0.844-2.847-2.081-3.772-3.577l0.851-0.526
						c0.835,1.35,2.011,2.465,3.402,3.226L47.68,47.385z M61.373,43.498l-0.868-0.495c0.784-1.374,1.198-2.941,1.198-4.531
						c0-0.218-0.007-0.435-0.022-0.648l0.998-0.069c0.016,0.237,0.024,0.477,0.024,0.718C62.703,40.236,62.243,41.973,61.373,43.498
						z M42.401,38.831c-0.004-0.119-0.006-0.238-0.007-0.358c0-1.642,0.4-3.271,1.156-4.712l0.886,0.465
						c-0.682,1.299-1.042,2.767-1.042,4.246l0.006,0.326L42.401,38.831z M60.164,33.39c-0.883-1.32-2.099-2.394-3.514-3.104
						l0.448-0.894c1.57,0.788,2.917,1.979,3.896,3.442L60.164,33.39z M47.602,30.767l-0.541-0.841
						c1.479-0.952,3.189-1.503,4.948-1.595l0.052,0.999C50.476,29.412,48.934,29.91,47.602,30.767z"/>
				</g>
				<g>
					<path style="fill:#BFC5EB;" d="M231.199,420.076l-0.018-1c1.589-0.027,3.147-0.47,4.508-1.278l0.511,0.859
						C234.691,419.554,232.962,420.044,231.199,420.076z M226.15,418.835c-1.542-0.845-2.847-2.082-3.772-3.578l0.851-0.525
						c0.834,1.35,2.01,2.465,3.402,3.227L226.15,418.835z M239.843,414.948l-0.868-0.496c0.784-1.372,1.198-2.939,1.198-4.529
						c-0.001-0.217-0.008-0.434-0.023-0.648l0.998-0.068c0.016,0.236,0.024,0.475,0.025,0.716
						C241.173,411.687,240.713,413.424,239.843,414.948z M220.871,410.283c-0.004-0.119-0.006-0.239-0.006-0.36
						c0-1.639,0.4-3.268,1.157-4.71l0.886,0.465c-0.682,1.299-1.042,2.768-1.042,4.245c0,0.109,0.002,0.218,0.005,0.325
						L220.871,410.283z M238.634,404.841c-0.882-1.32-2.097-2.393-3.514-3.105l0.449-0.894c1.57,0.789,2.917,1.979,3.895,3.442
						L238.634,404.841z M226.072,402.217l-0.541-0.84c1.479-0.953,3.19-1.505,4.949-1.596l0.052,0.998
						C228.947,400.863,227.405,401.36,226.072,402.217z"/>
				</g>
			</g>
		</g>
		<g>
			<g>
				<g>
					<g>
						<path style="fill:#D5D9F2;" d="M606.691,85.918v268.076c0,4.735-3.854,8.589-8.589,8.589H151.898
							c-4.735,0-8.589-3.854-8.589-8.589V85.918c0-4.745,3.854-8.589,8.589-8.589h446.203
							C602.836,77.329,606.691,81.173,606.691,85.918z"/>
					</g>
				</g>
				<g>
					<g>
						<path style="fill:#A4ACE3;" d="M598.101,77.324c4.736,0,8.589,3.853,8.589,8.589v268.083c0,4.736-3.853,8.589-8.589,8.589
							H151.899c-4.736,0-8.589-3.853-8.589-8.589V85.913c0-4.736,3.853-8.589,8.589-8.589H598.101L598.101,77.324z M598.101,66.588
							H151.899c-10.673,0-19.326,8.652-19.326,19.325v268.083c0,10.673,8.652,19.325,19.326,19.325h446.202
							c10.673,0,19.326-8.652,19.326-19.325V85.913C617.427,75.24,608.774,66.588,598.101,66.588L598.101,66.588z"/>
					</g>
				</g>
				<g>
					<g>
						<rect x="308.827" y="373.321" style="fill:#A4ACE3;" width="132.346" height="76.635"/>
					</g>
				</g>
				<g>
					<g>
						<path style="fill:#A4ACE3;" d="M488.511,470H261.488l0,0c0-11.069,8.974-20.043,20.043-20.043h186.937
							C479.538,449.957,488.511,458.931,488.511,470L488.511,470z"/>
					</g>
				</g>
				<g>
					<g>
						<polygon style="fill:#8A94DB;" points="441.173,373.321 348.596,373.321 441.173,391.23 						"/>
					</g>
				</g>
			</g>
			<g>
				<g>
					<g>
						<g>
							<path style="fill:#5766CC;" d="M350.48,113.705l-40.73,37.77l-46.59-30.26c9.92-15.23,27.08-25.29,46.59-25.29
								C325.84,95.925,340.33,102.765,350.48,113.705z"/>
						</g>
						<g>
							<path style="fill:#EBB044;" d="M309.75,151.475l55.12,6.91c-2.98,24.02-21.31,43.29-44.86,47.69L309.75,151.475z"/>
						</g>
						<g>
							<path style="fill:#518F60;" d="M365.297,151.473c0,2.345-0.146,4.648-0.428,6.916l-55.115-6.916l40.727-37.765
								C359.673,123.62,365.297,136.887,365.297,151.473z"/>
						</g>
						<g>
							<path style="fill:#EBB044;" d="M304.87,158.707l-10.982,54.465c-10.657-2.131-20.209-7.318-27.716-14.611L304.87,158.707z"/>
						</g>
					</g>
					<g>
						<g>
							<g>
								<rect x="398.449" y="91.762" style="fill:#BFC5EB;" width="59.958" height="21.946"/>
							</g>
							<g>
								<path style="fill:#BFC5EB;" d="M357.59,134.1c-0.161,0-0.319-0.078-0.416-0.221c-0.154-0.229-0.093-0.539,0.136-0.694
									l44.067-29.64c0.227-0.153,0.54-0.094,0.694,0.136c0.154,0.229,0.093,0.539-0.136,0.694l-44.068,29.64
									C357.783,134.073,357.686,134.1,357.59,134.1z"/>
							</g>
						</g>
						<g>
							<g>
								<rect x="398.449" y="147.734" style="fill:#BFC5EB;" width="59.958" height="21.946"/>
							</g>
							<g>
								<path style="fill:#BFC5EB;" d="M357.59,169.884c-0.224,0-0.427-0.151-0.484-0.377c-0.067-0.268,0.095-0.54,0.362-0.607
									l42.275-10.677c0.27-0.067,0.539,0.095,0.607,0.362c0.068,0.268-0.094,0.54-0.362,0.607l-42.275,10.677
									C357.671,169.879,357.63,169.884,357.59,169.884z"/>
							</g>
						</g>
						<g>
							<g>
								<rect x="398.449" y="194.586" style="fill:#BFC5EB;" width="59.958" height="21.946"/>
							</g>
							<g>
								<path style="fill:#BFC5EB;" d="M356.065,222.287h-43.801c-0.121,0-0.237-0.043-0.328-0.122l-20.031-17.427
									c-0.208-0.182-0.23-0.497-0.049-0.706c0.182-0.209,0.498-0.23,0.706-0.049l19.89,17.305h43.521l42.299-16.195
									c0.256-0.098,0.547,0.03,0.646,0.288c0.099,0.258-0.03,0.547-0.288,0.646l-42.385,16.228
									C356.186,222.276,356.126,222.287,356.065,222.287z"/>
							</g>
						</g>
						<g>
							<g>
								<rect x="164.042" y="91.762" style="fill:#BFC5EB;" width="59.957" height="21.946"/>
							</g>
							<g>
								<path style="fill:#BFC5EB;" d="M274.079,114.208c-0.097,0-0.195-0.028-0.282-0.087l-14.123-9.66h-38.38
									c-0.276,0-0.5-0.224-0.5-0.5c0-0.276,0.224-0.5,0.5-0.5h38.535c0.1,0,0.199,0.03,0.282,0.087l14.251,9.747
									c0.228,0.156,0.286,0.467,0.13,0.695C274.396,114.132,274.239,114.208,274.079,114.208z"/>
							</g>
						</g>
					</g>
				</g>
				<g>
					<g>
						<rect x="180.655" y="342.657" style="fill:#A4ACE3;" width="260.518" height="1"/>
					</g>
					<g>
						<rect x="193.399" y="249.101" style="fill:#5766CC;" width="26.095" height="94.055"/>
					</g>
					<g>
						<rect x="235.186" y="265.816" style="fill:#D82F3C;" width="26.095" height="77.34"/>
					</g>
					<g>
						<rect x="276.973" y="283.9" style="fill:#518F60;" width="26.095" height="59.256"/>
					</g>
					<g>
						<rect x="318.759" y="262.438" style="fill:#EBB044;" width="26.095" height="80.718"/>
					</g>
					<g>
						<rect x="360.546" y="290.974" style="fill:#D82F3C;" width="26.095" height="52.182"/>
					</g>
					<g>
						<rect x="402.333" y="249.101" style="fill:#5766CC;" width="26.095" height="94.055"/>
					</g>
				</g>
				<g>
					<g>
						<polygon style="fill:#BFC5EB;" points="483.986,246.684 451.703,324.557 516.268,324.557 						"/>
					</g>
					<g>
						<polygon style="fill:#BFC5EB;" points="548.55,269.332 516.268,324.557 580.832,324.557 						"/>
					</g>
				</g>
				<g>
					<g>
						<path style="fill:#BFC5EB;" d="M587.526,104.235H480.591c-0.828,0-1.5-0.671-1.5-1.5c0-0.829,0.672-1.5,1.5-1.5h106.935
							c0.828,0,1.5,0.671,1.5,1.5C589.026,103.563,588.354,104.235,587.526,104.235z"/>
					</g>
					<g>
						<path style="fill:#BFC5EB;" d="M567.526,123.758h-86.935c-0.828,0-1.5-0.671-1.5-1.5c0-0.829,0.672-1.5,1.5-1.5h86.935
							c0.828,0,1.5,0.671,1.5,1.5C569.026,123.087,568.354,123.758,567.526,123.758z"/>
					</g>
					<g>
						<path style="fill:#BFC5EB;" d="M547.526,143.282h-66.935c-0.828,0-1.5-0.671-1.5-1.5c0-0.829,0.672-1.5,1.5-1.5h66.935
							c0.828,0,1.5,0.671,1.5,1.5C549.026,142.61,548.354,143.282,547.526,143.282z"/>
					</g>
					<g>
						<path style="fill:#BFC5EB;" d="M577.526,162.805h-96.935c-0.828,0-1.5-0.671-1.5-1.5c0-0.829,0.672-1.5,1.5-1.5h96.935
							c0.828,0,1.5,0.671,1.5,1.5C579.026,162.134,578.354,162.805,577.526,162.805z"/>
					</g>
					<g>
						<path style="fill:#BFC5EB;" d="M557.526,182.328h-76.935c-0.828,0-1.5-0.671-1.5-1.5c0-0.829,0.672-1.5,1.5-1.5h76.935
							c0.828,0,1.5,0.671,1.5,1.5C559.026,181.657,558.354,182.328,557.526,182.328z"/>
					</g>
					<g>
						<path style="fill:#BFC5EB;" d="M547.526,201.852h-66.935c-0.828,0-1.5-0.671-1.5-1.5s0.672-1.5,1.5-1.5h66.935
							c0.828,0,1.5,0.671,1.5,1.5S548.354,201.852,547.526,201.852z"/>
					</g>
					<g>
						<path style="fill:#BFC5EB;" d="M567.526,221.375h-86.935c-0.828,0-1.5-0.671-1.5-1.5s0.672-1.5,1.5-1.5h86.935
							c0.828,0,1.5,0.671,1.5,1.5S568.354,221.375,567.526,221.375z"/>
					</g>
				</g>
			</g>
		</g>
		<g>
			<path style="fill:#A4ACE3;" d="M720,470.5H30c-0.276,0-0.5-0.224-0.5-0.5s0.224-0.5,0.5-0.5H720c0.276,0,0.5,0.224,0.5,0.5
				S720.276,470.5,720,470.5z"/>
		</g>
	</g>
	<g>
		<g>
			<g>
				<g>
					<g>
						<path style="fill:#2837A1;" d="M591.202,383.64c-0.322,0-0.647-0.037-0.974-0.112c-2.312-0.535-3.753-2.843-3.217-5.156
							l23.402-101.039c0.535-2.313,2.85-3.749,5.156-3.217c2.313,0.535,3.753,2.843,3.217,5.156L595.384,380.31
							C594.925,382.297,593.157,383.64,591.202,383.64z"/>
					</g>
				</g>
				<g>
					<polygon style="fill:#5766CC;" points="666.69,274.078 615.57,274.116 591.932,375.263 645.233,375.263 					"/>
				</g>
				<g>
					<g>
						<g>
							<path style="fill:#2837A1;" d="M640.381,386.628H539.849c-3.138,0-5.683-2.544-5.683-5.683l0,0
								c0-3.138,2.544-5.683,5.683-5.683h108.89v3.007C648.739,382.886,644.997,386.628,640.381,386.628z"/>
						</g>
					</g>
					<g>
						<g>
							<path style="fill:#2837A1;" d="M644.066,383.64c-0.322,0-0.647-0.037-0.974-0.112c-2.312-0.535-3.753-2.843-3.217-5.156
								l23.402-101.039c0.535-2.313,2.85-3.749,5.156-3.217c2.312,0.535,3.753,2.843,3.217,5.156L648.248,380.31
								C647.789,382.297,646.021,383.64,644.066,383.64z"/>
						</g>
					</g>
				</g>
			</g>
			<g>
				<g>
					<polygon style="fill:#2837A1;" points="640.381,386.628 651.632,470 647.792,470 630.442,386.628 					"/>
				</g>
				<g>
					<polygon style="fill:#2837A1;" points="594.11,386.628 582.859,470 586.698,470 604.049,386.628 					"/>
				</g>
				<g>
					<polygon style="fill:#2837A1;" points="597.801,401.31 637.445,401.31 639.016,409.172 594.772,409.172 					"/>
				</g>
			</g>
			<g>
				<g>
					<polygon style="fill:#2837A1;" points="540.28,386.628 529.029,470 532.868,470 550.219,386.628 					"/>
				</g>
			</g>
		</g>
		<g>
			<g>
				<g>
					<path style="fill:#FFFFFF;" d="M568.389,244.241c-5.622,8.118-9.729,48.822-8.772,57.15
						c-3.999,6.109-11.555,35.435-12.288,41.456l15.055,5.17c4.409-7.353,16.952-35.367,18.431-42.025
						c1.479-6.659,7.189-28.909,7.879-37.192c0.69-8.284-8.823-20.309-8.823-20.309L568.389,244.241z"/>
				</g>
				<g>
					<path style="fill:#C8C3CA;" d="M564.361,303.315c-0.07,0-0.141-0.02-0.204-0.061c-1.533-0.993-3.194-1.57-4.678-1.624
						c-0.167-0.006-0.309-0.122-0.35-0.283c-0.041-0.162,0.03-0.331,0.174-0.415c2.786-1.634,6.082-2.301,9.288-1.884
						c0.205,0.027,0.35,0.215,0.323,0.421c-0.027,0.204-0.208,0.353-0.421,0.323c-2.644-0.345-5.361,0.091-7.764,1.232
						c1.269,0.247,2.595,0.797,3.835,1.601c0.174,0.112,0.224,0.345,0.11,0.519C564.604,303.254,564.483,303.315,564.361,303.315z"
						/>
				</g>
			</g>
			<g>
				<g>
					<g>
						<g>
							<polygon style="fill:#9C4825;" points="556.506,438.766 556.21,460.116 544.485,460.116 541.078,439.591 							"/>
						</g>
						<g>
							<path style="fill:#FFFFFF;" d="M516.268,467.303h47.616c0.135-1.436-0.894-5.336-1.923-6.744
								c-0.054-2.113-0.496-7.194-3.634-7.194c-3.138,0-4.492,4.54-7.579,4.54c-3.088,0-3.521-5.2-6.934-5.2
								s-5.471,3.792-5.471,3.792l-15.206,4.339C519.933,461.749,517.372,464.16,516.268,467.303L516.268,467.303z"/>
						</g>
						<g>
							<path style="fill:#2C2F37;" d="M564.149,470h-48.147c-0.281,0-0.51-0.228-0.51-0.51v-1.678c0-0.281,0.228-0.51,0.51-0.51
								h48.148c0.281,0,0.51,0.228,0.51,0.509v1.678C564.659,469.772,564.431,470,564.149,470z"/>
						</g>
					</g>
					<g>
						<g>
							<polygon style="fill:#9C4825;" points="599.12,439.853 597.738,460.116 586.013,460.116 583.693,440.677 							"/>
						</g>
						<g>
							<path style="fill:#FFFFFF;" d="M557.795,467.303h47.616c0.135-1.436-0.894-5.336-1.923-6.744
								c-0.054-2.113-0.496-7.194-3.634-7.194c-3.138,0-4.492,4.54-7.579,4.54c-3.088,0-3.521-5.2-6.934-5.2
								c-3.413,0-5.471,3.792-5.471,3.792l-15.206,4.339C561.461,461.749,558.9,464.16,557.795,467.303L557.795,467.303z"/>
						</g>
						<g>
							<path style="fill:#C8C3CA;" d="M558.03,467.101c-0.053,0-0.106-0.011-0.157-0.032c-0.205-0.087-0.301-0.323-0.214-0.528
								c0.987-2.328,2.775-4.234,5.035-5.368c0.196-0.1,0.439-0.02,0.541,0.18c0.1,0.199,0.02,0.441-0.18,0.541
								c-2.089,1.048-3.742,2.81-4.654,4.962C558.336,467.008,558.186,467.101,558.03,467.101z"/>
						</g>
						<g>
							<path style="fill:#2C2F37;" d="M605.677,470h-48.148c-0.281,0-0.51-0.228-0.51-0.51v-1.678c0-0.281,0.228-0.51,0.51-0.51
								h48.148c0.281,0,0.509,0.228,0.509,0.509v1.678C606.186,469.772,605.958,470,605.677,470z"/>
						</g>
					</g>
				</g>
				<g>
					<g>
						<g>
							<path style="fill:#2C2F37;" d="M610.664,328.077c5.981,8.978,10.024,37.28-9.788,47.186h-49.175
								c3.125,8.491,11.212,54.786,12.627,66.309h-26.97c-4.365-12.13-29.876-73.991-20.558-84.099
								c9.319-10.108,66.695-29.602,66.695-29.602L610.664,328.077z"/>
						</g>
						<g>
							<path style="fill:#2C2F37;" d="M628.983,328.077c5.981,8.978,10.024,37.28-9.788,47.186h-27.789
								c3.125,8.491,11.212,54.786,12.627,66.309h-26.97c-4.365-12.13-29.876-73.991-20.558-84.099
								c9.319-10.108,40.856-19.909,40.856-19.909v-7.611L628.983,328.077z"/>
						</g>
					</g>
					<g>
						<g>
							<path style="fill:#5B5D63;" d="M555.523,375.638c-0.179,0-0.337-0.127-0.369-0.309c-1.712-9.544-1.359-15.469,1.077-18.11
								c9.279-10.067,39.727-19.612,41.02-20.014c0.198-0.057,0.408,0.049,0.47,0.247c0.061,0.198-0.05,0.408-0.247,0.47
								c-0.314,0.098-31.548,9.887-40.691,19.805c-2.234,2.424-2.534,8.302-0.89,17.47c0.036,0.204-0.099,0.399-0.303,0.436
								C555.567,375.636,555.545,375.638,555.523,375.638z"/>
						</g>
						<g>
							<path style="fill:#5B5D63;" d="M592.116,378.039c-0.16,0-0.309-0.103-0.358-0.264c-1.295-4.175-2.983-8.254-5.018-12.123
								c-0.097-0.184-0.025-0.41,0.157-0.507c0.183-0.095,0.409-0.025,0.507,0.157c2.056,3.91,3.762,8.032,5.07,12.25
								c0.061,0.198-0.05,0.408-0.247,0.47C592.19,378.034,592.153,378.039,592.116,378.039z"/>
						</g>
						<g>
							<path style="fill:#5B5D63;" d="M591.425,375.629c-0.046,0-0.093-0.009-0.138-0.026c-0.192-0.076-0.287-0.294-0.211-0.486
								c0.999-2.528,1.6-5.184,1.784-7.893c0.015-0.206,0.162-0.383,0.399-0.349c0.207,0.014,0.363,0.192,0.349,0.399
								c-0.189,2.787-0.807,5.518-1.835,8.117C591.716,375.539,591.575,375.629,591.425,375.629z"/>
						</g>
						<g>
							<path style="fill:#5B5D63;" d="M555.58,359.203c-0.184,0-0.345-0.135-0.371-0.321c-0.029-0.205,0.112-0.396,0.317-0.425
								c4.438-0.639,8.94-0.669,13.389-0.091c0.205,0.027,0.35,0.215,0.323,0.421c-0.026,0.204-0.208,0.346-0.421,0.323
								c-4.378-0.569-8.813-0.539-13.184,0.089C555.615,359.202,555.597,359.203,555.58,359.203z"/>
						</g>
						<g>
							<path style="fill:#5B5D63;" d="M516.086,358.587c-0.161,0-0.311-0.104-0.359-0.267c-0.06-0.199,0.053-0.408,0.251-0.468
								c4.481-1.345,9.117-1.864,13.789-1.551c0.207,0.014,0.362,0.192,0.349,0.399c-0.014,0.206-0.172,0.368-0.399,0.349
								c-4.579-0.31-9.129,0.202-13.522,1.521C516.158,358.582,516.121,358.587,516.086,358.587z"/>
						</g>
						<g>
							<path style="fill:#5B5D63;" d="M561.133,435.703h-24.081c-0.207,0-0.375-0.168-0.375-0.375c0-0.207,0.168-0.375,0.375-0.375
								h24.081c0.207,0,0.375,0.168,0.375,0.375C561.508,435.534,561.339,435.703,561.133,435.703z"/>
						</g>
						<g>
							<path style="fill:#5B5D63;" d="M601.634,435.703h-24.081c-0.207,0-0.375-0.168-0.375-0.375c0-0.207,0.168-0.375,0.375-0.375
								h24.081c0.207,0,0.375,0.168,0.375,0.375C602.009,435.534,601.841,435.703,601.634,435.703z"/>
						</g>
					</g>
				</g>
			</g>
			<g>
				<g>
					<g>
						<path style="fill:#9C4825;" d="M592.485,228.439c2.539,0.016,4.996-0.599,7.165-1.765c2.163-1.155,4.037-2.806,5.443-4.882
							l2.266-3.345V198.37c0-4.19-3.443-7.562-7.628-7.47l-6.876,0.158c-4.065,0.087-5.781,3.699-7.301,7.464
							c-1.842,4.544-0.36,7.421-0.512,12.302c-0.016,0.561-0.055,1.144-0.12,1.749c-0.027,0.24-0.06,0.485-0.093,0.736
							c-0.016,0.12-0.038,0.245-0.055,0.37c-0.033,0.223-0.076,0.452-0.12,0.687c-0.038,0.218-0.076,0.425-0.104,0.632
							c-0.016,0.087-0.033,0.169-0.044,0.256c-0.071,0.496-0.131,0.97-0.169,1.433c-0.044,0.441-0.065,0.877-0.076,1.291
							C584.034,226.015,589.107,228.423,592.485,228.439z"/>
					</g>
					<g>
						<g>
							<path style="fill:#9C4825;" d="M592.895,236.664c0,0,2.392,4.359,8.774,4.359c6.102,0,9.161-4.359,9.161-4.359l-3.468-18.218
								l-13.102,8.359l-0.255,1.562l-0.482,3.262L592.895,236.664z"/>
						</g>
						<g>
							<path style="fill:#2C2F37;" d="M593.523,231.629c2.476-0.521,4.803-1.672,6.759-3.313c1.924-1.609,3.454-3.691,4.416-5.993
								c-1.341,1.83-3.076,3.297-5.047,4.353c-1.735,0.931-3.643,1.514-5.646,1.688L593.523,231.629z"/>
						</g>
					</g>
					<g>
						<g>
							<path style="fill:#9C4825;" d="M604.236,214.368c0,2.761,2.238,4.999,4.999,4.999c2.761,0,5-2.238,5-4.999
								c0-2.761-2.238-4.999-5-4.999C606.475,209.369,604.236,211.607,604.236,214.368z"/>
						</g>
						<g>
							<g>
								<path style="fill:#782E10;" d="M606.375,217.416c-0.008,0-0.016,0-0.023-0.001c-0.207-0.013-0.364-0.191-0.351-0.398
									c0.092-1.466,0.836-2.886,1.989-3.798c1.152-0.912,2.704-1.307,4.155-1.059c0.204,0.035,0.341,0.229,0.306,0.433
									c-0.035,0.203-0.225,0.336-0.433,0.306c-1.242-0.213-2.575,0.126-3.563,0.908c-0.989,0.783-1.627,2-1.706,3.257
									C606.736,217.264,606.571,217.416,606.375,217.416z"/>
							</g>
							<g>
								<path style="fill:#782E10;" d="M611.397,216.708c-0.161,0-0.31-0.105-0.359-0.267c-0.399-1.332-1.528-2.336-2.876-2.557
									c-0.204-0.034-0.343-0.227-0.31-0.431c0.033-0.204,0.217-0.348,0.431-0.309c1.629,0.268,2.992,1.477,3.474,3.082
									c0.06,0.198-0.054,0.407-0.252,0.467C611.468,216.703,611.432,216.708,611.397,216.708z"/>
							</g>
						</g>
					</g>
					<g>
						<g>
							<path style="fill:#2C2F37;" d="M593.347,214.849c-0.052,0-0.104-0.01-0.153-0.033c-0.433-0.194-0.922-0.413-1.297-0.809
								c-0.382-0.402-0.648-1.08-0.38-1.684c0.13-0.295,0.353-0.502,0.552-0.684l0.159-0.151c0.531-0.532,0.754-1.264,0.847-1.785
								c0.124-0.696,0.106-1.436,0.088-2.153c-0.005-0.207,0.158-0.379,0.365-0.384c0.004,0,0.007,0,0.01,0
								c0.203,0,0.37,0.162,0.375,0.366c0.019,0.753,0.038,1.532-0.1,2.303c-0.16,0.898-0.524,1.653-1.054,2.183
								c-0.06,0.059-0.121,0.116-0.183,0.172c-0.157,0.145-0.307,0.283-0.374,0.435c-0.127,0.288,0.035,0.651,0.239,0.866
								c0.272,0.288,0.672,0.467,1.059,0.64c0.189,0.085,0.273,0.307,0.188,0.496C593.628,214.766,593.49,214.849,593.347,214.849z"
								/>
						</g>
						<g>
							<g>
								<g>
									<path style="fill:#2C2F37;" d="M591.231,203.871c0.028,0.277-0.032,0.563-0.17,0.805c-0.137,0.243-0.346,0.433-0.598,0.552
										c-0.538-0.357-1.1-0.725-1.741-0.809c-0.586-0.078-1.185,0.094-1.702,0.38c-0.517,0.286-1,0.676-1.433,1.078
										c-0.165-0.011-0.309-0.161-0.313-0.326c0.497-1.009,1.485-1.871,2.61-2.196
										C589.008,203.03,590.236,203.253,591.231,203.871z"/>
								</g>
								<g>
									<path style="fill:#2C2F37;" d="M590.704,209.734c-0.148,0-0.288-0.088-0.348-0.234c-0.302-0.744-0.931-1.137-1.816-1.137
										c-0.85,0-1.58,0.435-1.954,1.163c-0.096,0.185-0.32,0.256-0.506,0.162c-0.184-0.095-0.256-0.321-0.162-0.505
										c0.506-0.983,1.486-1.57,2.622-1.57c1.199,0,2.091,0.57,2.512,1.605c0.078,0.192-0.015,0.411-0.206,0.489
										C590.798,209.725,590.751,209.734,590.704,209.734z"/>
								</g>
								<g>
									<path style="fill:#2C2F37;" d="M589.44,209.297c0,0.723-0.429,1.31-0.957,1.31c-0.529,0-0.957-0.586-0.957-1.31
										c0-0.723,0.428-1.309,0.957-1.309C589.011,207.988,589.44,208.574,589.44,209.297z"/>
								</g>
							</g>
							<g>
								<g>
									<path style="fill:#2C2F37;" d="M595.712,203.871c-0.028,0.277,0.033,0.563,0.17,0.805c0.137,0.243,0.346,0.433,0.598,0.552
										c0.538-0.357,1.1-0.725,1.741-0.809c0.586-0.078,1.185,0.094,1.702,0.38c0.518,0.286,1,0.676,1.433,1.078
										c0.165-0.011,0.309-0.161,0.314-0.326c-0.497-1.009-1.485-1.871-2.609-2.196
										C597.935,203.03,596.707,203.253,595.712,203.871z"/>
								</g>
								<g>
									<path style="fill:#2C2F37;" d="M596.239,209.734c-0.047,0-0.095-0.009-0.142-0.027c-0.191-0.078-0.284-0.297-0.206-0.489
										c0.421-1.035,1.313-1.605,2.512-1.605c1.136,0,2.116,0.587,2.622,1.57c0.094,0.184,0.021,0.41-0.162,0.505
										c-0.188,0.094-0.41,0.022-0.506-0.162c-0.374-0.728-1.105-1.163-1.954-1.163c-0.886,0-1.515,0.393-1.816,1.137
										C596.527,209.645,596.386,209.734,596.239,209.734z"/>
								</g>
								<g>
									<path style="fill:#2C2F37;" d="M599.417,209.297c0,0.723-0.428,1.31-0.957,1.31c-0.529,0-0.957-0.586-0.957-1.31
										c0-0.723,0.429-1.309,0.957-1.309C598.989,207.988,599.417,208.574,599.417,209.297z"/>
								</g>
							</g>
						</g>
						<g>
							<g>
								<path style="fill:#782E10;" d="M592.428,223.054c-0.39,0-0.797-0.072-1.239-0.215c-0.197-0.064-0.306-0.275-0.241-0.472
									c0.064-0.197,0.276-0.304,0.472-0.242c0.928,0.301,1.603,0.23,2.4-0.251c0.176-0.106,0.407-0.051,0.515,0.128
									c0.107,0.177,0.05,0.408-0.128,0.515C593.608,222.877,593.039,223.054,592.428,223.054z"/>
							</g>
						</g>
						<g>
							<g>
								<g>
									<path style="fill:#782110;" d="M597.467,214.368c0,0.472,1.152,0.854,2.572,0.854c1.421,0,2.572-0.383,2.572-0.854
										c0-0.472-1.152-0.854-2.572-0.854C598.619,213.514,597.467,213.896,597.467,214.368z"/>
								</g>
							</g>
							<g>
								<g>
									<path style="fill:#782110;" d="M584.552,214.998c0.458,0.142,1.063,0.223,1.727,0.223c1.422,0,2.572-0.381,2.572-0.855
										c0-0.469-1.15-0.85-2.572-0.85c-0.561,0-1.079,0.06-1.504,0.163c-0.033,0.223-0.076,0.452-0.12,0.687
										C584.617,214.584,584.579,214.791,584.552,214.998z"/>
								</g>
							</g>
						</g>
					</g>
					<g>
						<path style="fill:#2C2F37;" d="M590.292,220.134c-0.468,0-0.935-0.034-1.398-0.102c-0.205-0.03-0.347-0.221-0.316-0.426
							c0.029-0.204,0.214-0.344,0.426-0.316c2.834,0.418,5.875-0.581,7.912-2.611c0.146-0.146,0.384-0.146,0.53,0.001
							c0.146,0.146,0.146,0.384-0.001,0.53C595.575,219.073,592.929,220.134,590.292,220.134z"/>
					</g>
				</g>
				<g>
					<path style="fill:#2C2F37;" d="M615.38,206.055c-0.77,1.62-1.74,3.14-2.79,4.61c-0.89-0.81-2.06-1.3-3.35-1.3
						c-1.7,0-3.2,0.85-4.11,2.15c-0.25-0.24-0.46-0.53-0.61-0.84c-0.38-0.8-0.43-1.72-0.47-2.61c-0.14-3.19-0.29-6.39-0.43-9.58
						c-1.95,1.63-4.58,2.79-7.11,3.07c-0.82,0.09-1.68,0.1-2.47-0.16c-0.79-0.25-1.51-0.8-1.82-1.57c-0.27-0.7-0.13-1.59,0.41-2.1
						c-1.93,1.6-4.17,2.86-6.53,3.72c-2.42,0.88-5.08,1.2-7.61,0.67c-1.04-0.21-2.1-0.61-2.8-1.41c-0.85-1-0.98-2.49-0.52-3.72
						c0.46-1.23,1.43-2.21,2.53-2.92c1.1-0.72,2.34-1.18,3.57-1.65c-1.08-0.13-2.05-0.3-3.01-0.82c-0.95-0.51-1.74-1.51-1.68-2.59
						c0.07-1.22,1.14-2.15,2.24-2.68c2.63-1.27,5.92-1.05,8.35,0.57c-0.61-0.63-1.14-1.27-1.5-2.07c-0.36-0.8-0.44-1.77,0-2.53
						c0.4-0.71,1.2-1.14,2.01-1.26c0.82-0.12,1.64,0.04,2.43,0.25c3.39,0.94,6.41,3.09,8.38,5.99c-0.54-0.89-0.51-2.09-0.13-3.07
						c0.4-1.07,1.38-1.9,2.5-2.13c1.35-0.27,2.74,0.31,3.87,1.1c1.88,1.33,3.28,3.25,4.29,5.32c1,2.07,1.65,4.3,2.25,6.52
						c1.06-1.06,2.94-0.88,4.04,0.13c1.11,1.01,1.54,2.57,1.62,4.06C617.04,201.565,616.39,203.915,615.38,206.055z"/>
				</g>
			</g>
			<g>
				<g>
					<path style="fill:#FFFFFF;" d="M632.716,259.793c-1.47,6.29,3.16,64.37-0.86,70.47c-4.03,6.1-59.79,5.12-62.59,0.85
						c-2.81-4.27,2.25-66.11,5.76-75.57c-5.87-1.28-8.59-10.3-6.04-12c2.55-1.7,20.42-6.47,23.91-6.88c0,0,2.39,4.36,8.77,4.36
						c6.11,0,9.16-4.36,9.16-4.36c3,0.33,22.33,4.16,23.95,6.71C636.396,245.923,639.526,258.003,632.716,259.793z"/>
				</g>
				<g>
					<path style="fill:#C8C3CA;" d="M570.833,332.424c-0.042,0-0.085-0.007-0.127-0.022c-0.918-0.33-1.491-0.684-1.753-1.082
						c-3.034-4.61,2.496-67.213,5.722-75.907c0.071-0.192,0.288-0.291,0.482-0.221c0.193,0.072,0.293,0.288,0.221,0.482
						c-3.728,10.046-8.441,71.217-5.798,75.233c0.094,0.144,0.397,0.436,1.38,0.789c0.194,0.069,0.296,0.284,0.226,0.479
						C571.13,332.329,570.986,332.424,570.833,332.424z"/>
				</g>
				<g>
					<g>
						<g>
							<path style="fill:#C8C3CA;" d="M573.605,261.883c-0.15,0-0.292-0.091-0.35-0.239c-0.797-2.046-1.425-4.177-1.867-6.332
								c-0.042-0.203,0.089-0.401,0.292-0.442c0.207-0.051,0.401,0.089,0.442,0.292c0.434,2.114,1.05,4.204,1.832,6.211
								c0.075,0.192-0.021,0.41-0.214,0.485C573.697,261.875,573.65,261.883,573.605,261.883z"/>
						</g>
					</g>
				</g>
				<g>
					<g>
						<polygon style="fill:#C8C3CA;" points="616.33,237.635 610.28,233.773 601.136,241.012 606.207,247.016 						"/>
					</g>
					<g>
						<polygon style="fill:#C8C3CA;" points="593.168,234.476 601.136,241.012 596.572,247.016 588.361,237.598 						"/>
					</g>
					<g>
						<g>
							<circle style="fill:#C8C3CA;" cx="601.136" cy="248.549" r="1.06"/>
						</g>
						<g>
							<circle style="fill:#C8C3CA;" cx="601.136" cy="255.236" r="1.06"/>
						</g>
						<g>
							<circle style="fill:#C8C3CA;" cx="601.136" cy="261.923" r="1.06"/>
						</g>
						<g>
							<circle style="fill:#C8C3CA;" cx="601.136" cy="268.611" r="1.06"/>
						</g>
					</g>
				</g>
			</g>
			<g>
				<g>
					<g>
						<path style="fill:#9C4825;" d="M590.855,327.282c-3.625,1.89-11.878,5.887-14.439,7.295c-2.749,1.72-7.687,5.596-9.062,6.908
							c-1.375,1.313-0.196,2.313,1.59,1.563c1.785-0.75,6.974-2.938,6.974-2.938c-1.314,1.688-6.974,6.629-3.564,6.629
							c2.063,0,4.875-3.566,4.875-3.566s-2.565,3.679-0.814,3.679c1.751,0,5.118-3.574,5.118-3.574s-2.305,3.461-0.804,3.461
							c1.5,0,5.495-3.003,6.342-4.191c2.471,0.625,6.409-0.813,11.034-6.063L590.855,327.282z"/>
					</g>
					<g>
						<g>
							<path style="fill:#782E10;" d="M581.333,343.974c-0.084,0-0.168-0.027-0.237-0.085c-0.16-0.131-0.185-0.367-0.053-0.527
								c0.232-0.283,0.484-0.6,0.753-0.936c0.892-1.118,2.002-2.509,3.043-3.564c0.146-0.146,0.383-0.148,0.53-0.003
								c0.148,0.146,0.148,0.383,0.003,0.53c-1.013,1.027-2.109,2.4-2.99,3.505c-0.27,0.339-0.525,0.657-0.759,0.943
								C581.549,343.927,581.441,343.974,581.333,343.974z"/>
						</g>
						<g>
							<path style="fill:#782E10;" d="M576.742,344.045c-0.087,0-0.175-0.03-0.245-0.092c-0.157-0.135-0.174-0.372-0.038-0.528
								c0.387-0.448,0.844-1.018,1.339-1.634c1.156-1.439,2.467-3.071,3.608-4.081c0.155-0.134,0.392-0.123,0.529,0.033
								c0.137,0.155,0.122,0.392-0.033,0.529c-1.093,0.967-2.383,2.572-3.521,3.988c-0.5,0.624-0.964,1.201-1.356,1.654
								C576.952,344.001,576.846,344.045,576.742,344.045z"/>
						</g>
						<g>
							<path style="fill:#782E10;" d="M575.464,340.85c-0.098,0-0.195-0.038-0.268-0.113c-0.145-0.148-0.142-0.386,0.007-0.53
								l3.292-3.215c0.146-0.145,0.384-0.142,0.53,0.007c0.144,0.147,0.142,0.385-0.007,0.53l-3.292,3.215
								C575.653,340.815,575.558,340.85,575.464,340.85z"/>
						</g>
					</g>
				</g>
				<g>
					<g>
						<path style="fill:#FFFFFF;" d="M634.776,243.373c6.26,5.176,14.604,57.027,8.493,63.76
							c-6.111,6.734-40.005,30.608-44.518,31.991l-10.165-12.688c4.393-2.966,26.3-27.52,33.791-30.761
							c-1.123-6.888-4.951-26.004-0.755-39.921C623.539,249.397,634.776,243.373,634.776,243.373z"/>
					</g>
					<g>
						<path style="fill:#C8C3CA;" d="M588.587,326.811c-0.12,0-0.238-0.058-0.311-0.165c-0.116-0.172-0.071-0.405,0.101-0.521
							c1.585-1.07,5.627-5.14,10.308-9.851c8.197-8.253,18.363-18.486,23.276-20.822c-0.079-0.482-0.17-1.016-0.269-1.599
							c-1.4-8.22-4.313-25.323-0.428-38.209c0.06-0.198,0.271-0.308,0.468-0.251c0.198,0.061,0.31,0.27,0.251,0.468
							c-3.835,12.717-0.941,29.703,0.448,37.866c0.119,0.702,0.228,1.334,0.317,1.887c0.027,0.17-0.063,0.337-0.222,0.404
							c-4.67,2.022-15.006,12.425-23.31,20.784c-4.902,4.935-8.774,8.832-10.42,9.943
							C588.732,326.79,588.659,326.811,588.587,326.811z"/>
					</g>
					<g>
						<path style="fill:#C8C3CA;" d="M598.752,339.499c-0.16,0-0.309-0.103-0.358-0.265c-0.06-0.198,0.051-0.408,0.248-0.469
							c3.135-0.961,21.915-13.766,34.648-23.623c0.164-0.126,0.398-0.097,0.526,0.067c0.126,0.164,0.097,0.399-0.067,0.526
							c-11.93,9.235-31.361,22.666-34.887,23.746C598.825,339.495,598.788,339.499,598.752,339.499z"/>
					</g>
					<g>
						<path style="fill:#C8C3CA;" d="M625.795,300.94c-0.145,0-0.284-0.086-0.346-0.228c-0.853-2.014-1.969-3.612-3.314-4.75
							c-0.128-0.108-0.169-0.288-0.1-0.44c0.068-0.152,0.224-0.244,0.397-0.217c2.935,0.43,5.719,1.974,7.638,4.237
							c0.134,0.157,0.114,0.395-0.044,0.528c-0.158,0.134-0.393,0.114-0.528-0.044c-1.527-1.802-3.64-3.118-5.927-3.724
							c1.015,1.103,1.877,2.481,2.57,4.116c0.08,0.19-0.009,0.411-0.199,0.492C625.894,300.93,625.844,300.94,625.795,300.94z"/>
					</g>
				</g>
			</g>
			<g>
				<g>
					<path style="fill:#A30D18;" d="M587.495,346.739h-25.181v6.049h25.181c1.67,0,3.025-1.354,3.025-3.025l0,0
						C590.519,348.093,589.165,346.739,587.495,346.739z"/>
				</g>
				<g>
					<polygon style="fill:#D82F3C;" points="512.39,352.788 568.944,352.788 546.198,313.662 489.644,313.662 					"/>
				</g>
				<g>
					<path style="fill:#A30D18;" d="M523.086,333.225c1.902,3.272,6.224,5.925,9.653,5.925c3.429,0,4.666-2.653,2.763-5.925
						c-1.902-3.272-6.224-5.925-9.653-5.925C522.421,327.3,521.184,329.953,523.086,333.225z"/>
				</g>
			</g>
		</g>
	</g>
	<g>
		<g>
			<g>
				<path style="fill:#2C2F37;" d="M101.173,190.375c-3.065-0.204-6.17-0.426-9.079-1.414c-2.909-0.988-5.647-2.845-7.049-5.579
					c-1.402-2.734-1.169-6.406,1.044-8.537c1.61-1.55,4.105-2.249,5.08-4.26c1.101-2.271-0.316-4.904-0.481-7.423
					c-0.222-3.389,1.924-6.548,4.596-8.643c2.673-2.096,5.871-3.387,8.847-5.024c2.976-1.637,5.877-3.783,7.267-6.882
					c1.349-3.01,1.089-6.496,2.05-9.652c1.445-4.743,5.858-8.436,10.781-9.023c4.923-0.587,9.995,1.918,12.514,6.188
					c2.178-0.907,4.842-0.246,6.538,1.394c1.696,1.64,2.45,4.12,2.234,6.469c-0.216,2.349-1.333,4.559-2.883,6.338l-14.211,41.649
					L101.173,190.375z"/>
			</g>
			<g>
				<g>
					<path style="fill:#9C4825;" d="M135.405,171.141c-2.539,0.016-4.996-0.599-7.165-1.765c-2.163-1.155-4.037-2.806-5.443-4.882
						l-2.266-3.345v-20.077c0-4.19,3.443-7.562,7.628-7.47l6.876,0.158c4.064,0.087,5.781,3.699,7.301,7.464
						c1.841,4.544,0.36,7.421,0.512,12.302c0.016,0.561,0.055,1.144,0.12,1.749c0.027,0.24,0.06,0.485,0.093,0.736
						c0.016,0.12,0.038,0.245,0.055,0.37c0.033,0.223,0.076,0.452,0.12,0.686c0.038,0.218,0.076,0.425,0.104,0.632
						c0.016,0.087,0.033,0.169,0.044,0.256c0.071,0.496,0.131,0.97,0.169,1.433c0.044,0.441,0.065,0.877,0.076,1.291
						C143.856,168.717,138.783,171.125,135.405,171.141z"/>
				</g>
				<g>
					<g>
						<polygon style="fill:#9C4825;" points="134.995,179.365 132.083,198.461 117.06,179.365 120.528,161.147 133.63,169.507 
							133.885,171.068 134.367,174.33 						"/>
					</g>
					<g>
						<path style="fill:#2C2F37;" d="M134.367,174.33c-2.476-0.521-4.804-1.672-6.759-3.313c-1.924-1.609-3.454-3.691-4.416-5.993
							c1.341,1.83,3.076,3.297,5.047,4.353c1.735,0.931,3.643,1.514,5.646,1.688L134.367,174.33z"/>
					</g>
				</g>
				<g>
					<g>
						<path style="fill:#9C4825;" d="M123.654,157.07c0,2.761-2.238,4.999-4.999,4.999c-2.761,0-5-2.238-5-4.999
							c0-2.761,2.238-4.999,5-4.999C121.415,152.07,123.654,154.309,123.654,157.07z"/>
					</g>
					<g>
						<g>
							<path style="fill:#782E10;" d="M121.515,160.118c-0.196,0-0.361-0.152-0.374-0.351c-0.08-1.258-0.718-2.476-1.706-3.258
								c-0.988-0.781-2.321-1.122-3.563-0.908c-0.202,0.032-0.398-0.102-0.433-0.306c-0.035-0.204,0.102-0.398,0.306-0.433
								c1.447-0.248,3.002,0.147,4.155,1.059c1.153,0.912,1.896,2.332,1.99,3.798c0.013,0.206-0.144,0.385-0.35,0.398
								C121.531,160.118,121.524,160.118,121.515,160.118z"/>
						</g>
						<g>
							<path style="fill:#782E10;" d="M116.492,159.41c-0.036,0-0.072-0.005-0.108-0.016c-0.198-0.06-0.311-0.269-0.252-0.467
								c0.482-1.605,1.845-2.814,3.474-3.082c0.207-0.032,0.397,0.105,0.431,0.31c0.034,0.204-0.105,0.397-0.309,0.431
								c-1.348,0.221-2.477,1.225-2.877,2.557C116.803,159.305,116.654,159.41,116.492,159.41z"/>
						</g>
					</g>
				</g>
				<g>
					<g>
						<path style="fill:#2C2F37;" d="M134.543,157.551c-0.143,0-0.28-0.083-0.342-0.222c-0.085-0.189,0-0.411,0.189-0.496
							c0.387-0.173,0.787-0.353,1.059-0.64c0.204-0.215,0.365-0.578,0.238-0.866c-0.067-0.152-0.216-0.289-0.372-0.434
							c-0.063-0.057-0.125-0.115-0.184-0.174c-0.529-0.529-0.893-1.284-1.054-2.183c-0.138-0.773-0.118-1.551-0.099-2.304
							c0.005-0.207,0.145-0.362,0.385-0.365c0.207,0.005,0.371,0.178,0.365,0.385c-0.019,0.715-0.037,1.454,0.087,2.152
							c0.093,0.521,0.316,1.253,0.847,1.785l0.162,0.153c0.197,0.182,0.419,0.388,0.549,0.682c0.268,0.605,0.002,1.282-0.38,1.685
							c-0.374,0.395-0.864,0.614-1.296,0.809C134.647,157.54,134.594,157.551,134.543,157.551z"/>
					</g>
					<g>
						<g>
							<g>
								<path style="fill:#2C2F37;" d="M136.659,146.572c-0.028,0.277,0.033,0.563,0.17,0.805c0.137,0.242,0.346,0.433,0.598,0.552
									c0.538-0.357,1.1-0.725,1.741-0.809c0.586-0.078,1.185,0.094,1.702,0.38c0.518,0.286,1,0.676,1.433,1.078
									c0.165-0.011,0.309-0.161,0.313-0.326c-0.497-1.009-1.485-1.871-2.61-2.196
									C138.882,145.732,137.654,145.954,136.659,146.572z"/>
							</g>
							<g>
								<path style="fill:#2C2F37;" d="M137.186,152.435c-0.047,0-0.095-0.009-0.141-0.027c-0.192-0.078-0.284-0.297-0.207-0.489
									c0.421-1.035,1.313-1.605,2.512-1.605c1.136,0,2.116,0.587,2.622,1.57c0.095,0.185,0.022,0.411-0.162,0.505
									c-0.186,0.096-0.411,0.022-0.505-0.162c-0.375-0.729-1.106-1.164-1.955-1.164c-0.886,0-1.514,0.393-1.816,1.137
									C137.474,152.347,137.334,152.435,137.186,152.435z"/>
							</g>
						</g>
						<g>
							<g>
								<path style="fill:#2C2F37;" d="M132.178,146.572c0.028,0.277-0.033,0.563-0.17,0.805c-0.137,0.242-0.346,0.433-0.598,0.552
									c-0.538-0.357-1.101-0.725-1.741-0.809c-0.586-0.078-1.185,0.094-1.702,0.38c-0.518,0.286-1,0.676-1.433,1.078
									c-0.165-0.011-0.309-0.161-0.313-0.326c0.497-1.009,1.485-1.871,2.61-2.196
									C129.955,145.732,131.183,145.954,132.178,146.572z"/>
							</g>
							<g>
								<path style="fill:#2C2F37;" d="M131.651,152.435c-0.148,0-0.288-0.088-0.348-0.234c-0.302-0.744-0.93-1.137-1.816-1.137
									c-0.849,0-1.58,0.435-1.955,1.164c-0.095,0.184-0.32,0.257-0.505,0.162c-0.184-0.095-0.256-0.321-0.162-0.505
									c0.506-0.983,1.486-1.57,2.622-1.57c1.199,0,2.091,0.57,2.512,1.605c0.078,0.192-0.015,0.411-0.207,0.489
									C131.746,152.427,131.698,152.435,131.651,152.435z"/>
							</g>
						</g>
					</g>
					<g>
						<g>
							<g>
								<path style="fill:#782110;" d="M130.423,157.07c0,0.472-1.152,0.854-2.572,0.854c-1.421,0-2.572-0.383-2.572-0.854
									c0-0.472,1.152-0.854,2.572-0.854C129.271,156.215,130.423,156.598,130.423,157.07z"/>
							</g>
						</g>
						<g>
							<g>
								<path style="fill:#782110;" d="M143.338,157.7c-0.458,0.142-1.063,0.223-1.727,0.223c-1.422,0-2.572-0.381-2.572-0.855
									c0-0.469,1.15-0.85,2.572-0.85c0.561,0,1.079,0.06,1.504,0.163c0.033,0.223,0.076,0.452,0.12,0.686
									C143.273,157.286,143.311,157.493,143.338,157.7z"/>
							</g>
						</g>
					</g>
					<g>
						<path style="fill:#2C2F37;" d="M135.302,162.383c-2.322,0-4.64-0.473-6.781-1.404c-0.19-0.082-0.277-0.303-0.194-0.493
							c0.083-0.189,0.305-0.277,0.493-0.194c3.288,1.429,7.011,1.728,10.485,0.84c0.199-0.049,0.404,0.07,0.456,0.271
							c0.051,0.201-0.07,0.405-0.27,0.456C138.119,162.209,136.71,162.383,135.302,162.383z"/>
					</g>
					<g>
						<path style="fill:#782E10;" d="M136.985,165.177c-0.041,0-0.083-0.007-0.124-0.021c-1.2-0.421-2.541-0.481-3.772-0.169
							c-0.198,0.049-0.405-0.07-0.456-0.271c-0.051-0.201,0.07-0.405,0.271-0.456c1.373-0.349,2.867-0.283,4.205,0.187
							c0.196,0.069,0.298,0.283,0.23,0.478C137.285,165.08,137.14,165.177,136.985,165.177z"/>
					</g>
					<g>
						<g>
							<path style="fill:#2C2F37;" d="M138.399,152.07c0,0.723,0.428,1.31,0.957,1.31c0.529,0,0.957-0.586,0.957-1.31
								c0-0.723-0.428-1.309-0.957-1.309C138.827,150.761,138.399,151.347,138.399,152.07z"/>
						</g>
						<g>
							<path style="fill:#2C2F37;" d="M128.421,152.07c0,0.723,0.428,1.309,0.957,1.309c0.529,0,0.957-0.586,0.957-1.309
								c0-0.723-0.428-1.309-0.957-1.309C128.85,150.761,128.421,151.347,128.421,152.07z"/>
						</g>
					</g>
				</g>
			</g>
			<g>
				<path style="fill:#2C2F37;" d="M123.25,145.005c1.52,1.54,2.13,4.01,1.79,6.15c-0.22,1.4-0.9,2.72-1.89,3.74
					c-0.8-1.67-2.51-2.82-4.5-2.82c-0.13,0-0.26,0-0.38,0.02l-1.21-6.19l1.59-9.97l8.55-3.39l11.2,0.7l2.9,3.7
					C136.76,141.985,130.04,144.995,123.25,145.005z"/>
			</g>
		</g>
		<g>
			<g>
				<g>
					<g>
						<path style="fill:#2C2F37;" d="M173.337,445.968h14.32c2.604,4.707,18.225,18.225,21.53,20.128
							c3.305,1.903,2.303,3.904,2.303,3.904h-20.428c-3.505-1.801-12.217-6.908-13.719-8.31l-3.104,8.31h-5.608
							c0,0,1.342-22.338,2.203-24.032C171.547,444.564,173.08,445.201,173.337,445.968z"/>
					</g>
					<g>
						<path style="fill:#9C4825;" d="M203.326,461.59c-9.04,2.35-26.59-9.02-29.99-15.62h14.32
							C189.447,449.21,197.456,456.66,203.326,461.59z"/>
					</g>
					<g>
						<polygon style="fill:#9C4825;" points="185.682,426.445 187.657,445.975 173.337,445.975 168.022,426.445 						"/>
					</g>
				</g>
				<g>
					<g>
						<path style="fill:#2C2F37;" d="M92.818,445.968h14.32c2.604,4.707,18.225,18.225,21.53,20.128
							c3.305,1.903,2.303,3.904,2.303,3.904h-20.428c-3.505-1.801-12.217-6.908-13.719-8.31L93.719,470h-5.608
							c0,0,1.342-22.338,2.203-24.032C91.028,444.564,92.561,445.201,92.818,445.968z"/>
					</g>
					<g>
						<path style="fill:#9C4825;" d="M122.807,461.59c-9.04,2.35-26.59-9.02-29.99-15.62h14.32
							C108.927,449.21,116.937,456.66,122.807,461.59z"/>
					</g>
					<g>
						<polygon style="fill:#9C4825;" points="111.928,426.445 107.138,445.975 92.818,445.975 93.958,426.445 						"/>
					</g>
				</g>
			</g>
			<g>
				<g>
					<g>
						<path style="fill:#2C2F37;" d="M152.501,252.24c6.688,25.534,16.173,62.85,23.94,99.15c2.063,9.639,9.688,56.562,13.78,84.213
							h-23.168c-6.248-16.806-22.036-55.124-21.902-77.206c-10.601-16.058-22.524-42.185-22.75-52.211V252.24H152.501z"/>
					</g>
					<g>
						<path style="fill:#2C2F37;" d="M107.971,252.24c-12.345,15.407-17.556,64.999-12.283,104.451
							c-9.673,29.371-7.887,70.25-6.979,78.913h22.566c8.64-33.096,27.068-120.019,27.806-154.204v-29.16H107.971z"/>
					</g>
				</g>
				<g>
					<g>
						<path style="fill:#5B5D63;" d="M127.267,363.814c-0.024,0-0.048-0.002-0.072-0.007c-0.203-0.04-0.336-0.236-0.296-0.441
							c7.28-37.32,11.474-66.433,11.809-81.975V252.24c0-0.207,0.168-0.375,0.375-0.375c0.207,0,0.375,0.168,0.375,0.375V281.4
							c-0.336,15.592-4.535,44.749-11.822,82.111C127.599,363.69,127.442,363.814,127.267,363.814z"/>
					</g>
					<g>
						<path style="fill:#5B5D63;" d="M133.173,280.112c-0.194,0-0.359-0.15-0.374-0.347c-0.016-0.207,0.14-0.387,0.346-0.402
							c6.491-0.487,11.576-5.968,11.576-12.478V252.24c0-0.207,0.168-0.375,0.375-0.375s0.375,0.168,0.375,0.375v14.645
							c0,6.899-5.39,12.709-12.271,13.226C133.193,280.112,133.183,280.112,133.173,280.112z"/>
					</g>
					<g>
						<path style="fill:#5B5D63;" d="M98.915,278.91c-0.16,0-0.308-0.103-0.358-0.264c-0.062-0.197,0.049-0.408,0.247-0.47
							c5.462-1.699,10.527-5.024,14.261-9.361c3.733-4.336,6.268-9.839,7.138-15.494c0.031-0.205,0.223-0.346,0.428-0.314
							c0.205,0.032,0.345,0.224,0.313,0.428c-0.891,5.793-3.487,11.43-7.311,15.871c-3.824,4.441-9.012,7.847-14.606,9.588
							C98.989,278.905,98.952,278.91,98.915,278.91z"/>
					</g>
					<g>
						<path style="fill:#5B5D63;" d="M116.567,359.704c-1.839,0-3.68-0.095-5.52-0.286c-0.206-0.022-0.356-0.206-0.335-0.412
							c0.021-0.205,0.211-0.349,0.412-0.334c5.806,0.603,11.633,0.239,17.316-1.081c0.201-0.048,0.403,0.078,0.45,0.28
							c0.047,0.202-0.079,0.403-0.28,0.45C124.647,359.242,120.614,359.704,116.567,359.704z"/>
					</g>
					<g>
						<path style="fill:#5B5D63;" d="M162.521,354.317c-0.102,0-0.203,0-0.302-0.002c-0.207-0.003-0.373-0.174-0.369-0.381
							c0.003-0.205,0.171-0.369,0.375-0.369c0.002,0,0.004,0,0.006,0c4.166,0.073,10.995-1.302,14.073-2.522
							c0.193-0.075,0.41,0.019,0.487,0.21c0.076,0.193-0.018,0.411-0.21,0.487C173.511,352.956,166.802,354.317,162.521,354.317z"/>
					</g>
					<g>
						<path style="fill:#5B5D63;" d="M92.146,432.618c-0.198,0-0.363-0.155-0.374-0.355c-1.099-20.916-0.816-51.001,6.761-75.606
							c-3.094-25.453-2.653-50.881,1.312-75.577c0.032-0.205,0.225-0.34,0.43-0.311c0.205,0.032,0.344,0.225,0.311,0.43
							c-3.957,24.652-4.394,50.037-1.298,75.447c0.006,0.052,0.002,0.105-0.014,0.155c-7.568,24.515-7.849,54.546-6.752,75.423
							c0.011,0.207-0.148,0.383-0.355,0.394C92.16,432.618,92.153,432.618,92.146,432.618z"/>
					</g>
					<g>
						<path style="fill:#5B5D63;" d="M169.082,433.664c-0.151,0-0.294-0.093-0.351-0.243c-6.574-17.444-17.999-50.578-20.708-76.604
							c-6.558-10.244-12.943-21.661-15.196-27.174c-0.078-0.191,0.014-0.41,0.205-0.488c0.194-0.079,0.411,0.013,0.489,0.205
							c2.243,5.488,8.628,16.897,15.182,27.128c0.031,0.049,0.051,0.105,0.057,0.164c2.683,25.954,14.104,59.073,20.673,76.505
							c0.073,0.193-0.025,0.41-0.219,0.483C169.171,433.657,169.126,433.664,169.082,433.664z"/>
					</g>
				</g>
			</g>
		</g>
		<g>
			<g>
				<g>
					<g>
						<path style="fill:#9C4825;" d="M213.207,164.297l3.775,8.707c6.364-2.001,18.455-8.404,19.491-9.247
							c1.036-0.843,0.242-1.834-0.813-1.411c-1.056,0.423-6.885,2.753-6.885,2.753s7.105-4.446,8.046-5.144
							c0.94-0.698,0.875-2.097-0.78-1.507c-1.655,0.591-8.189,4.107-8.189,4.107s8-5.173,8.627-5.763
							c0.627-0.59,0.473-1.892-0.998-1.356c-1.471,0.536-9.121,4.693-9.121,4.693s6.496-4.852,7.17-5.444
							c0.674-0.592,0.385-1.794-1.264-1.063C230.615,154.352,215.634,162.479,213.207,164.297z"/>
					</g>
					<g>
						<path style="fill:#D82F3C;" d="M285.49,154.653l-49.45,42.02c-9.64-11.32-15.45-25.99-15.45-42.02
							c0-9.08,1.86-17.72,5.23-25.56L285.49,154.653z"/>
					</g>
					<g>
						<path style="fill:#9C4825;" d="M213.207,164.297c0.571-2.06,3.039-7.316,4.066-8.345c1.027-1.029,5.942-3.921,6.591-3.016
							c0.649,0.905-1.166,3.092-3.046,3.881c0.407,1.713,0.871,7.402-1.024,9.927C218.473,168.504,213.207,164.297,213.207,164.297z
							"/>
					</g>
				</g>
			</g>
			<g>
				<g>
					<path style="fill:#FFFFFF;" d="M211.453,162.883l9.84,10.183c-4.43,5.824-21.14,37.176-33.097,38.131
						c-6.879,0.549-8.242-17.751-3.915-21.372C188.607,186.203,206.65,167.255,211.453,162.883z"/>
				</g>
				<g>
					<path style="fill:#FFFFFF;" d="M183.454,189.825c3.324,0.141,14.517,15.892,8.225,20.344
						c-6.334,4.481-44.972-1.295-48.208-3.99c-3.236-2.695-2.589-20.437-0.663-24.317
						C151.545,183.864,177.697,189.581,183.454,189.825z"/>
				</g>
				<g>
					<path style="fill:#C8C3CA;" d="M180.9,195.404c-0.052,0-0.105-0.011-0.155-0.034c-0.188-0.086-0.272-0.308-0.186-0.497
						c0.572-1.255,1.245-2.463,2.011-3.609c-0.434,0.275-0.882,0.573-1.358,0.902c-0.172,0.118-0.404,0.074-0.522-0.095
						c-0.118-0.17-0.075-0.404,0.095-0.522c1.08-0.746,2.021-1.336,2.964-1.86c0.157-0.085,0.352-0.05,0.467,0.084
						c0.116,0.135,0.121,0.333,0.011,0.474c-1.182,1.521-2.187,3.182-2.986,4.937C181.178,195.322,181.042,195.404,180.9,195.404z"
						/>
				</g>
			</g>
			<g>
				<g>
					<path style="fill:#FFFFFF;" d="M99.471,204.7c0.59,5.08,7.69,42.99,8.5,47.54c0,1.5,9.97,2.71,22.27,2.71
						c12.29,0,22.26-1.21,22.26-2.71c-0.61-7.74-0.66-15.63-0.13-23.37c2.12-0.2,4.15-1.21,5.58-2.78c1.44-1.57,2.26-3.68,2.27-5.81
						c0.03-6.25-6.61-11.21-6.98-17.45c6.04-3.23,6.89-14.04,5.02-15.57s-19.48-7.06-23.27-7.89l-2.909,19.091l-15.021-19.091
						c-2.62,0.66-22.27,7.12-23.72,8.4S86.281,202.49,99.471,204.7z"/>
				</g>
				<g>
					<path style="fill:#C8C3CA;" d="M152.008,239.286c-0.237-0.025-0.375-0.169-0.375-0.377c0.015-3.367,0.138-6.753,0.364-10.064
						c0.014-0.207,0.203-0.365,0.399-0.349c0.207,0.014,0.363,0.193,0.349,0.399c-0.225,3.296-0.347,6.666-0.362,10.017
						C152.382,239.118,152.214,239.286,152.008,239.286z"/>
				</g>
				<g>
					<path style="fill:#C8C3CA;" d="M152.371,229.245c-0.191,0-0.354-0.146-0.373-0.34c-0.019-0.206,0.132-0.389,0.338-0.409
						c2.027-0.191,3.973-1.16,5.338-2.659c1.372-1.495,2.163-3.521,2.172-5.56c0.015-3.106-1.658-5.856-3.428-8.768
						c-1.655-2.72-3.366-5.533-3.551-8.659c-0.012-0.207,0.145-0.384,0.353-0.396c0.184-0.021,0.383,0.146,0.396,0.353
						c0.174,2.939,1.836,5.671,3.443,8.313c1.747,2.873,3.554,5.842,3.538,9.161c-0.01,2.222-0.874,4.432-2.369,6.061
						c-1.488,1.634-3.61,2.691-5.821,2.9C152.395,229.245,152.383,229.245,152.371,229.245z"/>
				</g>
				<g>
					<g>
						<path style="fill:#C8C3CA;" d="M154.237,207.115c-0.048,0-0.097-0.009-0.145-0.029c-0.191-0.08-0.281-0.3-0.202-0.491
							l0.151-0.361c0.623-1.494,1.267-3.038,2.11-4.447c0.105-0.179,0.336-0.237,0.514-0.129c0.178,0.107,0.236,0.337,0.129,0.514
							c-0.816,1.363-1.449,2.882-2.061,4.351l-0.151,0.362C154.523,207.028,154.383,207.115,154.237,207.115z"/>
					</g>
					<g>
						<path style="fill:#C8C3CA;" d="M149.743,229.367c-2.771,0-5.542-0.517-8.149-1.529c-1.434-0.557-3.028-0.611-4.488-0.15
							c-3.848,1.209-7.268,1.691-10.463,1.47c-4.825-0.332-9.2-2.316-12.002-5.445c-0.138-0.154-0.125-0.391,0.029-0.529
							c0.154-0.138,0.391-0.125,0.529,0.029c2.673,2.984,6.863,4.879,11.495,5.197c3.096,0.211,6.429-0.258,10.187-1.438
							c1.623-0.511,3.393-0.451,4.984,0.167c3.411,1.325,7.112,1.772,10.703,1.292c0.209-0.032,0.394,0.116,0.421,0.322
							c0.027,0.206-0.117,0.394-0.322,0.421C151.698,229.302,150.721,229.367,149.743,229.367z"/>
					</g>
					<g>
						<path style="fill:#C8C3CA;" d="M111.275,252.424c-0.179,0-0.337-0.128-0.369-0.31c-0.619-3.505-1.442-7.947-2.341-12.797
							c-1.544-8.328-3.294-17.767-4.629-25.806c-0.034-0.205,0.104-0.397,0.309-0.432c0.207-0.036,0.397,0.104,0.432,0.309
							c1.333,8.032,3.082,17.467,4.626,25.792c0.899,4.852,1.724,9.296,2.342,12.803c0.036,0.204-0.1,0.398-0.304,0.435
							C111.319,252.422,111.297,252.424,111.275,252.424z"/>
					</g>
					<g>
						<path style="fill:#C8C3CA;" d="M134.034,204.037c-0.076,0-0.151-0.023-0.214-0.067l-28.417-19.766
							c-0.17-0.118-0.212-0.352-0.093-0.522c0.118-0.169,0.351-0.211,0.522-0.093l28.066,19.522l10.867-20.903
							c0.095-0.183,0.323-0.255,0.505-0.16c0.184,0.095,0.255,0.322,0.16,0.505l-11.063,21.281
							c-0.049,0.096-0.138,0.165-0.243,0.191C134.094,204.034,134.064,204.037,134.034,204.037z"/>
					</g>
				</g>
				<g>
					<g>
						<g>
							<path style="fill:#C8C3CA;" d="M139.135,227.378c-0.048,0-0.097-0.009-0.145-0.029c-0.191-0.08-0.281-0.299-0.202-0.491
								c2.583-6.187-0.434-12.234-2.858-17.093c-1.208-2.422-2.252-4.515-2.272-6.099c-0.002-0.207,0.163-0.377,0.371-0.379
								c0.001,0,0.003,0,0.004,0c0.205,0,0.373,0.165,0.375,0.371c0.017,1.412,1.025,3.433,2.193,5.773
								c2.361,4.732,5.594,11.214,2.879,17.717C139.421,227.292,139.282,227.378,139.135,227.378z"/>
						</g>
						<g>
							<path style="fill:#C8C3CA;" d="M137.09,255.326c-0.188,0-0.35-0.141-0.372-0.332c-0.571-4.997-1.983-23.895-0.061-27.829
								c0.091-0.186,0.317-0.263,0.501-0.172c0.186,0.091,0.263,0.315,0.172,0.501c-1.708,3.496-0.597,21.028,0.133,27.414
								c0.023,0.206-0.124,0.392-0.33,0.416C137.119,255.324,137.104,255.326,137.09,255.326z"/>
						</g>
					</g>
					<g>
						<g>
							<path style="fill:#C8C3CA;" d="M138.65,205.559c-1.287,0-1.289,2,0,2C139.937,207.559,139.939,205.559,138.65,205.559z"/>
						</g>
						<g>
							<path style="fill:#C8C3CA;" d="M142.17,213.451c-1.287,0-1.289,2,0,2C143.457,215.451,143.459,213.451,142.17,213.451z"/>
						</g>
						<g>
							<path style="fill:#C8C3CA;" d="M142.878,221.605c-1.287,0-1.289,2,0,2C144.165,223.605,144.167,221.605,142.878,221.605z"/>
						</g>
						<g>
							<path style="fill:#C8C3CA;" d="M139.686,231.958c-1.287,0-1.289,2,0,2C140.973,233.958,140.975,231.958,139.686,231.958z"/>
						</g>
						<g>
							<path style="fill:#C8C3CA;" d="M139.686,239.809c-1.287,0-1.289,2,0,2C140.973,241.809,140.975,239.809,139.686,239.809z"/>
						</g>
						<g>
							<path style="fill:#C8C3CA;" d="M139.944,247.574c-1.287,0-1.289,2,0,2C141.231,249.574,141.234,247.574,139.944,247.574z"/>
						</g>
					</g>
				</g>
			</g>
			<g>
				<g>
					<g>
						<g>
							<path style="fill:#9C4825;" d="M106.14,265.033l-7.5,5.815c3.516,5.669,12.716,15.796,13.789,16.591
								c1.073,0.795,1.837-0.22,1.166-1.138c-0.671-0.918-4.374-5.988-4.374-5.988s6.068,5.782,6.978,6.52
								c0.909,0.738,2.249,0.328,1.266-1.129c-0.983-1.457-6.008-6.916-6.008-6.916s6.994,6.468,7.721,6.929
								c0.727,0.461,1.95-0.01,1.067-1.303c-0.883-1.292-6.807-7.673-6.807-7.673s6.31,5.091,7.051,5.597
								c0.741,0.506,1.833-0.072,0.717-1.489C120.089,279.433,108.503,266.934,106.14,265.033z"/>
						</g>
						<g>
							<path style="fill:#9C4825;" d="M106.14,265.033c2.137,0.043,7.841,1.131,9.093,1.871c1.252,0.74,5.271,4.785,4.556,5.638
								c-0.716,0.854-3.285-0.363-4.514-1.989c-1.559,0.818-4.115,1.551-6.243,0.981C106.904,270.964,106.14,265.033,106.14,265.033
								z"/>
						</g>
						<g>
							<path style="fill:#782E10;" d="M107.645,281.346c-0.161,0-0.309-0.104-0.358-0.266c-0.061-0.198,0.051-0.407,0.249-0.468
								c2.456-0.751,5.045-2.922,6.596-5.531c0.106-0.178,0.335-0.238,0.514-0.131c0.178,0.105,0.237,0.336,0.131,0.514
								c-1.641,2.761-4.396,5.064-7.021,5.865C107.718,281.341,107.681,281.346,107.645,281.346z"/>
						</g>
					</g>
					<g>
						<path style="fill:#FFFFFF;" d="M109.115,263.983l-11.43,9.081c-5.252-5.095-28.842-27.078-30.715-35.593
							c-1.482-6.74,16.493-10.058,19.57-5.329C89.619,236.87,105.35,258.691,109.115,263.983z"/>
					</g>
				</g>
				<g>
					<path style="fill:#FFFFFF;" d="M67.08,232.219c-2.914,10.478,10.338,17.487,19.937,5.408
						c10.921-13.744,21.172-31.587,21.391-35.792c0.218-4.206-11.329-13.816-14.799-14.246
						C84.601,192.59,69.08,225.03,67.08,232.219z"/>
				</g>
				<g>
					<path style="fill:#C8C3CA;" d="M101.567,216.797c-0.065,0-0.131-0.017-0.19-0.052c-0.178-0.105-0.237-0.336-0.132-0.514
						c4.084-6.893,6.685-12.416,6.788-14.415c0.011-0.207,0.192-0.37,0.394-0.355c0.206,0.011,0.366,0.187,0.355,0.394
						c-0.111,2.145-2.688,7.663-6.892,14.758C101.82,216.731,101.695,216.797,101.567,216.797z"/>
				</g>
				<g>
					<path style="fill:#C8C3CA;" d="M88.999,236.049c-0.108,0-0.215-0.047-0.288-0.135c-1.625-1.946-3.542-3.611-5.698-4.947
						c-0.176-0.109-0.23-0.34-0.121-0.517c0.109-0.175,0.34-0.23,0.517-0.121c1.723,1.068,3.298,2.339,4.7,3.791
						c-0.445-1.205-1.003-2.354-1.647-3.384c-0.11-0.175-0.057-0.407,0.119-0.517c0.175-0.11,0.406-0.056,0.517,0.119
						c0.972,1.553,1.754,3.364,2.264,5.236c0.046,0.17-0.032,0.35-0.188,0.431C89.117,236.036,89.058,236.049,88.999,236.049z"/>
				</g>
			</g>
		</g>
	</g>
</g>
</svg>
