<?xml version="1.0" encoding="utf-8"?>
<!-- Generator: Adobe Illustrator 27.5.0, SVG Export Plug-In . SVG Version: 6.00 Build 0)  -->
<svg version="1.1" id="Capa_1" xmlns="http://www.w3.org/2000/svg" xmlns:xlink="http://www.w3.org/1999/xlink" x="0px" y="0px"
	 viewBox="0 0 2122 2122" style="enable-background:new 0 0 2122 2122;" xml:space="preserve">
<rect x="0.008" y="0.004" style="fill:#FFFFFF;" width="2121.309" height="2121.313"/>
<g>
	<g>
		<g>
			<path style="fill:#8DD0F1;" d="M258.043,1307.371c22.172,72.211,53.82,140.266,93.492,202.734l893.527-0.078v16.852
				l-882.539,0.086c13.215,19.734,27.25,38.867,42.047,57.371l896.012-0.066l0.004,38.977l-862.926,0.066
				c153.629,169.996,375.828,276.832,623,276.832c377.773,0,697.234-249.543,802.617-592.773H258.043z"/>
		</g>
		<g>
			<path style="fill:#8DD0F1;" d="M1886.703,1211.004H234.621c3.5,19.371,7.676,38.512,12.48,57.391h1627.117
				C1879.027,1249.516,1883.199,1230.375,1886.703,1211.004z"/>
		</g>
		<g>
			<path style="fill:#8DD0F1;" d="M742.18,794.777v10.055H260.926c-8.262,25.844-15.297,52.231-21.051,79.094h562.859v23.254
				H235.223c-9.195,49.762-14.047,101.051-14.047,153.48c0,45.434,3.66,90.008,10.609,133.492h1657.754
				c6.949-43.484,10.609-88.059,10.609-133.492c0-177.16-54.926-341.465-148.613-476.918H679.754v-23.25h1055.152
				c-20.598-27.723-42.844-54.148-66.633-79.094H619.199v-10.055h1039.258c-152.238-154.414-363.824-250.168-597.797-250.168
				c-370.703,0-685.25,240.293-796.473,573.602H742.18z"/>
		</g>
	</g>
</g>
<g>
	<rect x="906.867" y="1460.676" style="fill:#7D878E;" width="307.586" height="210.004"/>
	<rect x="869.871" y="1626.129" style="fill:#7D878E;" width="381.578" height="44.551"/>
	<rect x="906.867" y="1460.676" style="fill:#5B666C;" width="307.586" height="105"/>
	<rect x="460.332" y="1450.063" style="fill:#7D878E;" width="1200.656" height="76.363"/>
	<rect x="460.332" y="1450.063" style="fill:#E2E9EE;" width="1200.656" height="18.488"/>
	<rect x="460.332" y="728.828" style="fill:#3D4447;" width="1200.656" height="721.234"/>
	<rect x="482.492" y="747.426" style="fill:#475054;" width="1156.34" height="701.645"/>
	<rect x="547.125" y="805.195" style="fill:#FFFFFF;" width="1027.066" height="576.984"/>
</g>
<g>
	
		<line style="fill:none;stroke:#31343C;stroke-width:9.978;stroke-linecap:round;stroke-linejoin:round;stroke-miterlimit:10;" x1="153.445" y1="1670.68" x2="1967.875" y2="1670.68"/>
</g>
<g>
	<rect x="1308.32" y="1256.977" style="fill:#C46D1F;" width="617.109" height="405.672"/>
	<rect x="1362.406" y="1296.152" style="fill:#FFFFFF;" width="518.688" height="342.504"/>
	<g>
		<rect x="1388.777" y="1329.828" style="fill:#7B858D;" width="48.34" height="8.066"/>
		<rect x="1388.777" y="1351.473" style="fill:#7B858D;" width="265.688" height="8.058"/>
		<rect x="1388.777" y="1364.566" style="fill:#7B858D;" width="265.688" height="8.059"/>
		<rect x="1388.777" y="1377.672" style="fill:#7B858D;" width="265.688" height="8.051"/>
		<rect x="1388.777" y="1390.77" style="fill:#7B858D;" width="265.688" height="8.055"/>
		<g>
			<path style="fill:#E86C52;" d="M1771.969,1389.547c0,3.766-3.051,6.816-6.82,6.816h-55.18c-3.762,0-6.82-3.051-6.82-6.816v-55.18
				c0-3.769,3.059-6.824,6.82-6.824h55.18c3.77,0,6.82,3.055,6.82,6.824V1389.547z"/>
			<path style="fill:#FFFFFF;" d="M1743.953,1365.324v-6.184c3.301-1.227,5.641-4.391,5.641-8.109c0-4.781-3.875-8.66-8.656-8.66
				c-4.777,0-8.664,3.879-8.664,8.66c0,2.692,1.227,5.082,3.145,6.672h-6.277c1.91-1.59,3.133-3.98,3.133-6.672
				c0-4.781-3.871-8.66-8.656-8.66c-4.773,0-8.66,3.879-8.66,8.66c0,3.539,2.125,6.578,5.164,7.914v22.586h23.832v-7.609
				l16.215,4.754v-18.113L1743.953,1365.324z M1740.938,1346.746c2.375,0,4.289,1.918,4.289,4.285c0,2.375-1.914,4.293-4.289,4.293
				c-2.367,0-4.289-1.918-4.289-4.293C1736.648,1348.664,1738.57,1346.746,1740.938,1346.746z M1723.617,1346.746
				c2.371,0,4.293,1.918,4.293,4.285c0,2.375-1.922,4.293-4.293,4.293s-4.289-1.918-4.289-4.293
				C1719.328,1348.664,1721.246,1346.746,1723.617,1346.746z"/>
		</g>
		<path style="fill:#8ED0F1;" d="M1854.727,1389.547c0,3.766-3.051,6.816-6.82,6.816h-55.184c-3.758,0-6.82-3.051-6.82-6.816v-55.18
			c0-3.769,3.063-6.824,6.82-6.824h55.184c3.77,0,6.82,3.055,6.82,6.824V1389.547z"/>
	</g>
	<polygon style="fill:#F4AA2A;" points="1836.426,1381.008 1779.844,1412.301 1248.465,1412.301 1308.32,1662.648 1925.43,1662.648 
		1992.766,1381.008 	"/>
</g>
<g>
	<path style="fill:#E86C52;" d="M502.922,988.727c0,10.914-8.852,19.769-19.766,19.769H323.133
		c-10.918,0-19.766-8.855-19.766-19.769V828.703c0-10.918,8.848-19.766,19.766-19.766h160.023c10.914,0,19.766,8.848,19.766,19.766
		V988.727z"/>
	<path style="fill:#FFFFFF;" d="M421.691,918.469v-17.918c9.539-3.559,16.348-12.727,16.348-23.508
		c0-13.871-11.238-25.113-25.102-25.113c-13.867,0-25.113,11.242-25.113,25.113c0,7.781,3.547,14.738,9.109,19.344h-18.219
		c5.563-4.606,9.109-11.563,9.109-19.344c0-13.871-11.242-25.113-25.109-25.113c-13.863,0-25.109,11.242-25.109,25.113
		c0,10.254,6.16,19.063,14.973,22.957v65.496h69.113v-22.078l46.988,13.785V904.68L421.691,918.469z M412.938,864.602
		c6.867,0,12.434,5.566,12.434,12.441c0,6.867-5.566,12.434-12.434,12.434c-6.871,0-12.445-5.566-12.445-12.434
		C400.492,870.168,406.066,864.602,412.938,864.602z M362.715,864.602c6.871,0,12.438,5.566,12.438,12.441
		c0,6.867-5.566,12.434-12.438,12.434c-6.871,0-12.438-5.566-12.438-12.434C350.277,870.168,355.844,864.602,362.715,864.602z"/>
</g>
<g>
	<g>
		<path style="fill:#8ED0F1;" d="M831.203,1031.727c0,10.914-8.855,19.766-19.773,19.766H651.41
			c-10.918,0-19.766-8.852-19.766-19.766V871.699c0-10.918,8.848-19.77,19.766-19.77h160.02c10.918,0,19.773,8.852,19.773,19.77
			V1031.727z"/>
	</g>
	<path style="fill:#FFFFFF;" d="M731.422,881.453c-23.422,0-42.398,18.98-42.398,42.398c0,23.414,42.398,98.117,42.398,98.117
		s42.395-74.703,42.395-98.117C773.816,900.434,754.832,881.453,731.422,881.453z M731.422,947.121
		c-11.887,0-21.52-9.629-21.52-21.516c0-11.887,9.633-21.52,21.52-21.52c11.879,0,21.516,9.633,21.516,21.52
		C752.938,937.492,743.301,947.121,731.422,947.121z"/>
</g>
<g>
	<g>
		<g>
			<g>
				<g>
					<path style="fill:#F4AA2A;" d="M782.172,664.356c0,10.914-8.852,19.766-19.77,19.766H602.387
						c-10.922,0-19.777-8.852-19.777-19.766V504.328c0-10.914,8.855-19.766,19.777-19.766h160.016
						c10.918,0,19.77,8.852,19.77,19.766V664.356z"/>
				</g>
			</g>
		</g>
	</g>
	<g>
		<g>
			<path style="fill:#FFFFFF;" d="M738.492,578.379c-1.168-11.106-5.555-21.254-12.219-29.488l3.238-3.242l-8.43-8.426l-3.238,3.234
				c-8.234-6.656-18.379-11.047-29.488-12.219v-4.574H676.43v4.574c-11.106,1.172-21.25,5.563-29.484,12.219l-3.242-3.234
				l-8.426,8.426l3.234,3.242c-6.66,8.234-11.047,18.383-12.219,29.488h-4.574v11.922h4.574c1.172,11.105,5.559,21.25,12.219,29.488
				l-3.234,3.238l8.426,8.43l3.242-3.234c8.234,6.656,18.379,11.047,29.484,12.215v4.574h11.926v-4.574
				c11.109-1.168,21.254-5.559,29.488-12.215l3.238,3.234l8.43-8.43l-3.238-3.242c6.664-8.234,11.051-18.379,12.219-29.484h4.574
				v-11.922H738.492z M687.426,551.016c1.699,0.258,3.398,0.645,5.082,1.176l1.094-2.508l6.527,2.844l-1.094,2.508
				c1.18,0.668,2.297,1.398,3.367,2.18l-10.117,10.121c-1.508-0.879-3.141-1.563-4.859-2.019V551.016z M665.816,551.91l6.625-2.606
				l1.004,2.547c1.281-0.352,2.59-0.633,3.918-0.832v14.297c-1.727,0.457-3.355,1.141-4.859,2.019l-10.117-10.113
				c1.406-1.039,2.887-1.965,4.43-2.766L665.816,551.91z M650.582,566.602l2.508,1.09c0.664-1.172,1.402-2.289,2.18-3.359
				l10.121,10.117c-0.879,1.5-1.563,3.137-2.023,4.859H649.07c0.25-1.699,0.644-3.402,1.176-5.086l-2.504-1.094L650.582,566.602z
				 M652.512,599.918l-2.547,1.004l-2.605-6.629l2.543-1.004c-0.355-1.285-0.625-2.598-0.832-3.922h14.297
				c0.461,1.727,1.144,3.356,2.023,4.859l-10.113,10.117C654.238,602.938,653.316,601.457,652.512,599.918z M677.363,617.668
				c-1.707-0.258-3.402-0.652-5.086-1.18l-1.094,2.504l-6.527-2.844l1.094-2.504c-1.176-0.664-2.301-1.398-3.363-2.184
				l10.117-10.117c1.504,0.879,3.133,1.563,4.859,2.016V617.668z M683.578,596.422h-2.375v-0.91c-2.207-0.231-4.23-1.106-5.871-2.43
				l-0.644,0.641l-1.684-1.68l0.648-0.641c-1.324-1.644-2.203-3.664-2.433-5.871h-0.91v-2.379h0.91
				c0.23-2.211,1.109-4.234,2.433-5.871l-0.648-0.648l1.684-1.676l0.644,0.645c1.641-1.328,3.664-2.199,5.871-2.434v-0.914h2.375
				v0.914c2.219,0.234,4.238,1.105,5.875,2.434l0.645-0.645l1.68,1.676l-0.644,0.648c1.328,1.637,2.199,3.66,2.434,5.871h0.914
				v2.379h-0.914c-0.234,2.207-1.106,4.227-2.434,5.871l0.644,0.641l-1.68,1.68l-0.645-0.641c-1.637,1.324-3.656,2.199-5.875,2.43
				V596.422z M698.973,616.769l-6.629,2.606l-0.996-2.547c-1.289,0.359-2.602,0.629-3.922,0.832v-14.301
				c1.719-0.453,3.352-1.137,4.859-2.016l10.117,10.113c-1.41,1.035-2.887,1.961-4.433,2.762L698.973,616.769z M714.207,602.074
				l-2.512-1.09c-0.66,1.172-1.395,2.293-2.18,3.367l-10.121-10.125c0.879-1.504,1.566-3.133,2.024-4.859h14.301
				c-0.262,1.707-0.645,3.406-1.184,5.09l2.512,1.09L714.207,602.074z M714.879,575.391c0.359,1.285,0.633,2.594,0.836,3.918
				h-14.297c-0.457-1.723-1.145-3.359-2.024-4.859l10.121-10.117c1.035,1.41,1.957,2.887,2.762,4.434l2.543-1.004l2.609,6.625
				L714.879,575.391z"/>
		</g>
	</g>
</g>
<g>
	<path style="fill:#707B81;" d="M1329.66,916.652c0,28.559-23.148,51.707-51.707,51.707c-28.551,0-51.703-23.148-51.703-51.707
		c0-28.555,23.152-51.703,51.703-51.703C1306.512,864.949,1329.66,888.098,1329.66,916.652z"/>
	<path style="fill:#F4AA2A;" d="M1393.445,714.527h-0.012c8.93-17.59,14-37.473,14-58.551c0-71.516-57.965-129.481-129.48-129.481
		c-71.512,0-129.477,57.965-129.477,129.481c0,21.512,5.277,41.785,14.563,59.641l0,0c13.926,30.781,33.852,36.289,33.852,81.059
		c0,44.777,36.297,81.07,81.063,81.07c44.77,0,81.059-36.293,81.059-81.07c0-30.094,10.027-44.77,21.672-61.918
		c4.789-6.242,9.023-12.938,12.629-20.008C1393.355,714.68,1393.398,714.606,1393.445,714.527z"/>
	<path style="fill:#C46D1F;" d="M1311.531,855.508c-44.77,0-81.063-36.293-81.063-81.07c0-44.769-19.918-50.277-33.859-81.059
		c-9.277-17.859-14.559-38.121-14.559-59.645c0-37.82,16.223-71.844,42.086-95.516c-44.641,20.434-75.66,65.457-75.66,117.758
		c0,21.512,5.277,41.785,14.563,59.641c13.926,30.781,33.852,36.289,33.852,81.059c0,44.777,36.297,81.07,81.063,81.07
		c23.855,0,45.309-10.313,60.141-26.715C1329.766,853.918,1320.836,855.508,1311.531,855.508z"/>
	<rect x="1200.68" y="826.008" style="fill:#C0D1DA;" width="154.543" height="89.734"/>
	<rect x="1200.68" y="855.508" style="fill:#707B81;" width="154.543" height="30.734"/>
</g>
</svg>
